<svg xmlns="http://www.w3.org/2000/svg" xml:space="preserve" style="fill-rule:evenodd;clip-rule:evenodd;stroke-linejoin:round;stroke-miterlimit:2;" viewBox="0 0 1004 221"><path d="M10.029 10.611h294.945v200.283H10.029z" style="fill:#fff;fill-rule:nonzero;"/><path d="M15.701 16.103h283.602v189.07H15.701z" style="fill:#233e91;fill-rule:nonzero;"/><path d="m151.459 57.299 5.984-4.367 5.985 4.367-2.278-7.063 6.079-4.367h-7.493l-2.293-7.148-2.293 7.156-7.488-.008 6.074 4.367-2.277 7.063ZM120.49 65.619l5.984-4.367 5.981 4.367-2.274-7.063 6.075-4.367h-7.493l-2.292-7.156-2.293 7.164-7.489-.008 6.074 4.367-2.273 7.063ZM103.814 69.744l-2.293 7.164-7.488-.008 6.074 4.367-2.277 7.063 5.984-4.367 5.984 4.367-2.277-7.063 6.074-4.367h-7.488l-2.293-7.156ZM95.502 114.892l5.981 4.367-2.274-7.062 6.074-4.368h-7.488l-2.293-7.156-2.293 7.172-7.492-.016 6.078 4.368-2.277 7.062 5.984-4.367ZM106.107 138.852l-2.293-7.156-2.293 7.164-7.488-.008 6.074 4.367-2.277 7.063 5.984-4.375 5.984 4.375-2.277-7.063 6.074-4.367h-7.488ZM128.81 161.555l-2.293-7.148-2.289 7.156-7.492-.008 6.074 4.367-2.273 7.063 5.984-4.367 5.98 4.367-2.273-7.063 6.074-4.367h-7.492ZM159.74 169.782l-2.293-7.156-2.289 7.164-7.492-.008 6.074 4.367-2.273 7.063 5.984-4.367 5.98 4.367-2.277-7.063 6.078-4.367h-7.492ZM190.67 161.555l-2.289-7.148-2.297 7.156-7.484-.008 6.07 4.367-2.273 7.063 5.984-4.367 5.984 4.367-2.281-7.063 6.078-4.367h-7.492ZM213.381 138.852l-2.297-7.156-2.297 7.164-7.484-.008 6.078 4.367-2.281 7.063 5.984-4.375 5.984 4.375-2.281-7.063 6.078-4.367h-7.484ZM229.092 107.743H221.6l-2.297-7.156-2.289 7.164-7.492-.008 6.078 4.367-2.274 7.063 5.977-4.375 5.984 4.375-2.273-7.063 6.078-4.367ZM205.099 88.236l5.984-4.367 5.985 4.367-2.281-7.063 6.078-4.359h-7.485l-2.297-7.156-2.296 7.164-7.485-.008 6.078 4.359-2.281 7.063ZM188.467 47.041l-2.289 7.164-7.492-.016 6.07 4.375-2.273 7.063 5.992-4.375 5.976 4.375-2.273-7.063 6.078-4.375h-7.5l-2.289-7.148Z" style="fill:#fecd03;fill-rule:nonzero;"/><path d="M340.421 87V40.472h9.395v20.661l18.98-20.661h12.631l-17.52 18.122L382.38 87h-12.156l-12.791-21.836-7.617 7.776V87h-9.395ZM394.25 70.147c0 3.344.794 5.904 2.38 7.681 1.588 1.778 3.544 2.666 5.872 2.666 2.327 0 4.279-.888 5.856-2.666 1.576-1.777 2.364-4.359 2.364-7.744 0-3.3-.788-5.84-2.364-7.617-1.577-1.777-3.529-2.666-5.856-2.666-2.328 0-4.284.889-5.872 2.666-1.586 1.777-2.38 4.337-2.38 7.68Zm-9.14-.476c0-2.962.729-5.829 2.19-8.6 1.459-2.773 3.527-4.889 6.204-6.348 2.677-1.461 5.665-2.19 8.966-2.19 5.1 0 9.278 1.656 12.537 4.966 3.258 3.312 4.888 7.496 4.888 12.553 0 5.1-1.646 9.326-4.936 12.68-3.29 3.353-7.431 5.03-12.425 5.03-3.089 0-6.036-.698-8.839-2.095-2.804-1.396-4.936-3.443-6.395-6.141-1.461-2.698-2.19-5.983-2.19-9.855ZM448.237 87V53.294h8.918V87h-8.918Zm0-38.276v-8.252h8.918v8.252h-8.918Zm-25.041 4.57h4.951v-2.539c0-2.835.301-4.951.904-6.347.603-1.397 1.714-2.534 3.332-3.413 1.619-.877 3.666-1.317 6.142-1.317 2.539 0 5.025.381 7.458 1.143l-1.205 6.22a17.657 17.657 0 0 0-4.095-.507c-1.291 0-2.217.301-2.777.905-.561.602-.841 1.761-.841 3.475v2.38h6.665v7.015h-6.665V87h-8.918V60.309h-4.951v-7.015ZM497.24 87h-8.918V69.798c0-3.638-.191-5.993-.572-7.061-.381-1.069-1-1.9-1.856-2.493-.858-.591-1.889-.888-3.095-.888-1.545 0-2.931.424-4.157 1.269-1.228.847-2.069 1.969-2.524 3.366-.455 1.396-.682 3.977-.682 7.744V87h-8.919V53.294h8.284v4.951c2.94-3.808 6.644-5.712 11.108-5.712 1.968 0 3.766.354 5.396 1.063 1.629.709 2.861 1.613 3.697 2.713a9.84 9.84 0 0 1 1.746 3.746c.327 1.397.492 3.396.492 5.998V87ZM524.884 70.814c-1.143.381-2.952.836-5.428 1.364-2.474.529-4.094 1.048-4.855 1.556-1.163.825-1.745 1.872-1.745 3.141 0 1.249.464 2.328 1.396 3.239.93.909 2.115 1.364 3.555 1.364 1.607 0 3.141-.528 4.602-1.587 1.078-.804 1.786-1.788 2.126-2.951.233-.762.349-2.211.349-4.349v-1.777Zm-11.934-7.237-8.092-1.459c.909-3.258 2.475-5.67 4.697-7.237 2.222-1.565 5.522-2.348 9.901-2.348 3.979 0 6.941.47 8.888 1.412 1.946.942 3.316 2.137 4.11 3.587.793 1.449 1.19 4.109 1.19 7.982l-.095 10.41c0 2.962.143 5.147.429 6.554.285 1.407.819 2.915 1.602 4.522h-8.823c-.233-.591-.519-1.47-.857-2.634a16.474 16.474 0 0 0-.317-1.047c-1.523 1.481-3.153 2.592-4.888 3.332-1.735.741-3.586 1.111-5.554 1.111-3.471 0-6.205-.941-8.204-2.824-2-1.884-3-4.264-3-7.142 0-1.904.455-3.602 1.365-5.094.909-1.492 2.185-2.634 3.824-3.427 1.64-.794 4.004-1.487 7.093-2.079 4.169-.783 7.057-1.513 8.665-2.19v-.888c0-1.715-.423-2.937-1.27-3.666-.846-.731-2.443-1.096-4.791-1.096-1.587 0-2.826.312-3.714.936-.89.625-1.609 1.72-2.159 3.285ZM573.095 87h-8.918V69.798c0-3.638-.19-5.993-.571-7.061-.381-1.069-1-1.9-1.857-2.493-.857-.591-1.888-.888-3.095-.888-1.544 0-2.93.424-4.157 1.269-1.227.847-2.069 1.969-2.523 3.366-.455 1.396-.683 3.977-.683 7.744V87h-8.919V53.294h8.284v4.951c2.941-3.808 6.644-5.712 11.109-5.712 1.968 0 3.765.354 5.395 1.063 1.629.709 2.862 1.613 3.698 2.713a9.84 9.84 0 0 1 1.746 3.746c.327 1.397.491 3.396.491 5.998V87ZM578.554 87v-6.951l12.632-14.504c2.073-2.369 3.607-4.051 4.601-5.047a84.352 84.352 0 0 1-4.093.127l-11.903.065v-7.396h27.867v6.316l-12.886 14.853-4.538 4.92c2.475-.147 4.009-.222 4.602-.222h13.806V87h-30.088ZM614.641 87V53.294h8.918V87h-8.918Zm0-38.276v-8.252h8.918v8.252h-8.918ZM652.727 67.259c-.064-2.581-.73-4.544-1.999-5.888-1.27-1.342-2.815-2.015-4.635-2.015-1.946 0-3.555.71-4.824 2.127-1.27 1.418-1.894 3.344-1.872 5.776h13.33Zm-.508 9.014 8.887 1.491c-1.143 3.259-2.947 5.74-5.411 7.443-2.466 1.704-5.55 2.555-9.252 2.555-5.862 0-10.2-1.915-13.013-5.744-2.222-3.068-3.333-6.941-3.333-11.617 0-5.586 1.461-9.96 4.381-13.123 2.92-3.163 6.611-4.745 11.076-4.745 5.015 0 8.971 1.656 11.87 4.966 2.898 3.312 4.284 8.385 4.157 15.219h-22.344c.065 2.646.784 4.703 2.159 6.173 1.376 1.471 3.09 2.206 5.142 2.206 1.397 0 2.571-.381 3.523-1.143.952-.761 1.671-1.988 2.158-3.681ZM677.387 87h-8.918V53.294h8.283v4.792c1.417-2.263 2.693-3.755 3.824-4.474 1.132-.719 2.417-1.079 3.857-1.079 2.031 0 3.988.56 5.872 1.682l-2.762 7.776c-1.503-.973-2.899-1.46-4.189-1.46-1.249 0-2.307.343-3.174 1.031-.868.688-1.55 1.932-2.047 3.729-.498 1.799-.746 5.566-.746 11.299V87ZM709.602 53.294v7.11h-6.094v13.584c0 2.751.058 4.353.175 4.808.116.455.381.83.793 1.126.413.297.915.446 1.508.446.825 0 2.02-.287 3.586-.858l.761 6.919c-2.073.889-4.422 1.333-7.045 1.333-1.608 0-3.058-.269-4.348-.81-1.291-.539-2.238-1.237-2.841-2.094-.603-.857-1.021-2.016-1.254-3.475-.189-1.037-.285-3.132-.285-6.285V60.404h-4.094v-7.11h4.094v-6.696l8.95-5.205v11.901h6.094ZM743.117 87l-13.584-33.706h9.363l6.347 17.202 1.841 5.745c.486-1.459.793-2.422.92-2.888.297-.952.614-1.904.953-2.857l6.41-17.202h9.173L751.147 87h-8.03ZM777.076 70.147c0 3.344.794 5.904 2.38 7.681 1.588 1.778 3.544 2.666 5.872 2.666 2.327 0 4.28-.888 5.856-2.666 1.576-1.777 2.364-4.359 2.364-7.744 0-3.3-.788-5.84-2.364-7.617-1.576-1.777-3.529-2.666-5.856-2.666-2.328 0-4.284.889-5.872 2.666-1.586 1.777-2.38 4.337-2.38 7.68Zm-9.14-.476c0-2.962.729-5.829 2.19-8.6 1.459-2.773 3.528-4.889 6.204-6.348 2.677-1.461 5.665-2.19 8.966-2.19 5.1 0 9.278 1.656 12.537 4.966 3.258 3.312 4.888 7.496 4.888 12.553 0 5.1-1.646 9.326-4.936 12.68-3.29 3.353-7.431 5.03-12.424 5.03-3.09 0-6.037-.698-8.84-2.095-2.804-1.396-4.936-3.443-6.395-6.141-1.461-2.698-2.19-5.983-2.19-9.855ZM840.362 87h-8.917V69.798c0-3.638-.191-5.993-.572-7.061-.381-1.069-1-1.9-1.856-2.493-.858-.591-1.889-.888-3.095-.888-1.545 0-2.931.424-4.157 1.269-1.228.847-2.07 1.969-2.524 3.366-.455 1.396-.682 3.977-.682 7.744V87h-8.919V53.294h8.284v4.951c2.94-3.808 6.644-5.712 11.108-5.712 1.968 0 3.766.354 5.396 1.063 1.629.709 2.861 1.613 3.697 2.713a9.84 9.84 0 0 1 1.746 3.746c.327 1.397.491 3.396.491 5.998V87ZM874.577 69.417c0 3.598.496 6.201 1.492 7.808 1.438 2.328 3.448 3.491 6.03 3.491 2.052 0 3.798-.873 5.236-2.618 1.44-1.746 2.158-4.354 2.158-7.824 0-3.871-.697-6.659-2.093-8.363-1.397-1.703-3.186-2.555-5.365-2.555-2.116 0-3.887.842-5.316 2.523-1.428 1.683-2.142 4.196-2.142 7.538ZM898.38 87h-8.283v-4.951c-1.376 1.926-2.999 3.36-4.872 4.301-1.872.941-3.761 1.412-5.665 1.412-3.872 0-7.189-1.56-9.95-4.682-2.761-3.12-4.142-7.474-4.142-13.06 0-5.713 1.344-10.055 4.031-13.028 2.687-2.973 6.082-4.459 10.188-4.459 3.765 0 7.024 1.566 9.775 4.697V40.472h8.918V87ZM927.199 67.259c-.063-2.581-.729-4.544-1.999-5.888-1.269-1.342-2.814-2.015-4.634-2.015-1.947 0-3.555.71-4.825 2.127-1.269 1.418-1.893 3.344-1.872 5.776h13.33Zm-.507 9.014 8.886 1.491c-1.142 3.259-2.946 5.74-5.411 7.443-2.466 1.704-5.55 2.555-9.252 2.555-5.861 0-10.199-1.915-13.012-5.744-2.222-3.068-3.333-6.941-3.333-11.617 0-5.586 1.46-9.96 4.38-13.123 2.92-3.163 6.612-4.745 11.077-4.745 5.014 0 8.97 1.656 11.87 4.966 2.898 3.312 4.284 8.385 4.157 15.219H913.71c.065 2.646.783 4.703 2.158 6.173 1.376 1.471 3.09 2.206 5.143 2.206 1.396 0 2.57-.381 3.522-1.143.953-.761 1.671-1.988 2.159-3.681ZM951.86 87h-8.918V53.294h8.283v4.792c1.417-2.263 2.692-3.755 3.824-4.474 1.132-.719 2.417-1.079 3.856-1.079 2.032 0 3.989.56 5.873 1.682l-2.762 7.776c-1.503-.973-2.9-1.46-4.19-1.46-1.249 0-2.306.343-3.173 1.031-.869.688-1.55 1.932-2.047 3.729-.498 1.799-.746 5.566-.746 11.299V87ZM340.294 164.999v-46.528h34.5v7.871h-25.105v10.316h23.359v7.838h-23.359v12.664h25.994v7.839h-35.389ZM405.771 164.999v-5.046c-1.228 1.798-2.841 3.216-4.84 4.253-2 1.037-4.11 1.555-6.332 1.555-2.265 0-4.296-.497-6.094-1.492-1.799-.994-3.099-2.391-3.903-4.19-.805-1.797-1.207-4.284-1.207-7.458v-21.327h8.919v15.488c0 4.74.164 7.643.492 8.712.327 1.069.925 1.915 1.793 2.539.867.625 1.968.936 3.301.936 1.523 0 2.887-.418 4.094-1.254 1.205-.835 2.032-1.872 2.475-3.11.445-1.237.667-4.269.667-9.093v-14.218h8.919v33.705h-8.284ZM431.827 164.999h-8.918v-33.705h8.284v4.791c1.417-2.263 2.692-3.755 3.824-4.474 1.132-.718 2.417-1.079 3.856-1.079 2.032 0 3.989.56 5.872 1.682l-2.761 7.776c-1.503-.973-2.9-1.46-4.19-1.46-1.249 0-2.306.343-3.174 1.031-.868.688-1.549 1.932-2.047 3.729-.498 1.799-.746 5.566-.746 11.299v10.41ZM455.663 148.146c0 3.344.794 5.904 2.38 7.682 1.588 1.777 3.544 2.666 5.872 2.666 2.327 0 4.28-.889 5.856-2.666 1.576-1.778 2.364-4.36 2.364-7.745 0-3.3-.788-5.839-2.364-7.617-1.576-1.777-3.529-2.666-5.856-2.666-2.328 0-4.284.889-5.872 2.666-1.586 1.778-2.38 4.337-2.38 7.68Zm-9.14-.476c0-2.962.729-5.829 2.19-8.6 1.459-2.773 3.527-4.889 6.204-6.348 2.677-1.46 5.665-2.19 8.966-2.19 5.1 0 9.278 1.656 12.537 4.966 3.258 3.312 4.888 7.497 4.888 12.553 0 5.1-1.646 9.326-4.936 12.68-3.29 3.353-7.431 5.03-12.424 5.03-3.09 0-6.037-.698-8.84-2.095-2.804-1.396-4.936-3.443-6.395-6.141-1.461-2.697-2.19-5.983-2.19-9.855ZM496.859 147.576c0 3.787.751 6.585 2.254 8.394 1.502 1.809 3.332 2.713 5.49 2.713 2.074 0 3.798-.83 5.174-2.491 1.375-1.66 2.062-4.385 2.062-8.173 0-3.533-.709-6.156-2.126-7.871-1.418-1.713-3.174-2.57-5.268-2.57-2.18 0-3.989.84-5.428 2.523-1.439 1.682-2.158 4.174-2.158 7.475Zm-8.823-16.282h8.315v4.951c1.08-1.693 2.539-3.068 4.381-4.126 1.84-1.058 3.882-1.587 6.125-1.587 3.914 0 7.236 1.534 9.966 4.602 2.729 3.068 4.094 7.342 4.094 12.822 0 5.628-1.376 10.003-4.128 13.123-2.75 3.122-6.082 4.682-9.996 4.682-1.862 0-3.55-.37-5.062-1.111-1.513-.74-3.106-2.01-4.777-3.809v16.981h-8.918v-46.528ZM544.467 125.327v-7.65h7.681v7.65h-7.681Zm2.126 23.486c-1.143.381-2.951.836-5.427 1.364-2.475.529-4.095 1.048-4.856 1.556-1.163.825-1.745 1.872-1.745 3.141 0 1.249.464 2.329 1.396 3.239.931.909 2.115 1.364 3.555 1.364 1.607 0 3.141-.528 4.602-1.587 1.078-.804 1.787-1.788 2.126-2.951.233-.762.349-2.211.349-4.349v-1.777Zm-15.773-23.486v-7.65h7.648v7.65h-7.648Zm3.839 16.25-8.092-1.46c.909-3.258 2.475-5.67 4.697-7.237 2.222-1.565 5.522-2.348 9.902-2.348 3.978 0 6.94.471 8.887 1.412 1.946.942 3.316 2.137 4.11 3.587.793 1.449 1.19 4.109 1.19 7.982l-.095 10.41c0 2.962.143 5.147.429 6.554.285 1.407.819 2.915 1.602 4.522h-8.823c-.233-.591-.519-1.47-.857-2.634a16.474 16.474 0 0 0-.317-1.047c-1.523 1.481-3.153 2.592-4.888 3.332-1.735.741-3.586 1.111-5.554 1.111-3.471 0-6.205-.941-8.204-2.824-2-1.884-3-4.264-3-7.142 0-1.904.455-3.602 1.365-5.093.909-1.493 2.184-2.635 3.824-3.428 1.64-.794 4.004-1.487 7.094-2.079 4.168-.783 7.057-1.513 8.664-2.19v-.888c0-1.715-.423-2.937-1.27-3.666-.845-.731-2.443-1.096-4.792-1.096-1.586 0-2.825.312-3.713.936-.889.625-1.608 1.72-2.159 3.286ZM564.146 164.999v-33.705h8.918v33.705h-8.918Zm0-38.276v-8.252h8.918v8.252h-8.918ZM579.062 155.382l8.95-1.364c.381 1.735 1.153 3.053 2.317 3.951 1.163.9 2.793 1.349 4.887 1.349 2.307 0 4.042-.423 5.205-1.27.783-.592 1.175-1.385 1.175-2.38 0-.676-.212-1.237-.635-1.682-.444-.423-1.439-.814-2.983-1.174-7.195-1.587-11.754-3.036-13.68-4.348-2.666-1.82-3.998-4.348-3.998-7.586 0-2.92 1.152-5.374 3.459-7.363 2.306-1.988 5.882-2.983 10.728-2.983 4.612 0 8.04.751 10.283 2.253 2.242 1.502 3.787 3.724 4.634 6.666l-8.411 1.554c-.36-1.311-1.043-2.316-2.048-3.015-1.004-.698-2.438-1.047-4.299-1.047-2.35 0-4.032.328-5.047.984-.678.465-1.016 1.069-1.016 1.809 0 .635.296 1.174.889 1.619.804.592 3.581 1.428 8.331 2.507 4.75 1.079 8.066 2.401 9.95 3.967 1.861 1.586 2.793 3.798 2.793 6.633 0 3.09-1.291 5.744-3.872 7.967-2.582 2.221-6.4 3.332-11.458 3.332-4.591 0-8.226-.931-10.901-2.793-2.677-1.861-4.428-4.39-5.253-7.586ZM647.743 141.259l-8.791 1.587c-.297-1.756-.967-3.079-2.015-3.968-1.047-.888-2.408-1.332-4.078-1.332-2.222 0-3.995.767-5.317 2.301-1.322 1.534-1.983 4.1-1.983 7.696 0 3.999.672 6.824 2.015 8.474 1.343 1.65 3.147 2.477 5.412 2.477 1.692 0 3.078-.482 4.158-1.445 1.078-.963 1.84-2.618 2.285-4.968l8.76 1.493c-.91 4.02-2.657 7.056-5.238 9.109-2.582 2.052-6.041 3.078-10.378 3.078-4.93 0-8.861-1.555-11.791-4.666-2.93-3.109-4.396-7.415-4.396-12.917 0-5.564 1.471-9.896 4.412-12.997 2.94-3.1 6.919-4.649 11.934-4.649 4.104 0 7.368.883 9.791 2.65 2.422 1.767 4.163 4.459 5.22 8.077ZM663.391 118.471v17.107c2.877-3.364 6.315-5.046 10.314-5.046 2.052 0 3.905.38 5.555 1.142 1.65.762 2.893 1.736 3.728 2.92a10.577 10.577 0 0 1 1.714 3.936c.307 1.439.46 3.671.46 6.696v19.773h-8.918v-17.804c0-3.534-.17-5.778-.507-6.729a4.415 4.415 0 0 0-1.793-2.269c-.858-.561-1.932-.842-3.222-.842-1.482 0-2.804.36-3.968 1.08-1.163.719-2.015 1.804-2.555 3.253-.539 1.449-.808 3.592-.808 6.427v16.884h-8.919v-46.528h8.919ZM714.235 145.258c-.064-2.581-.73-4.544-1.999-5.887-1.27-1.343-2.815-2.016-4.635-2.016-1.947 0-3.555.71-4.824 2.127-1.27 1.418-1.894 3.344-1.873 5.776h13.331Zm-.508 9.014 8.886 1.491c-1.142 3.259-2.946 5.74-5.411 7.443-2.465 1.704-5.549 2.555-9.252 2.555-5.861 0-10.199-1.915-13.012-5.744-2.222-3.068-3.333-6.94-3.333-11.617 0-5.586 1.461-9.96 4.381-13.123 2.919-3.163 6.611-4.745 11.076-4.745 5.014 0 8.97 1.656 11.87 4.966 2.898 3.312 4.284 8.385 4.157 15.219h-22.344c.065 2.646.784 4.703 2.159 6.173 1.375 1.471 3.089 2.206 5.142 2.206 1.397 0 2.57-.381 3.523-1.142.952-.762 1.67-1.989 2.158-3.682ZM761.017 164.999h-8.918v-17.202c0-3.638-.191-5.993-.571-7.061-.381-1.069-1-1.9-1.857-2.492-.857-.592-1.889-.889-3.095-.889-1.545 0-2.93.424-4.157 1.269-1.227.847-2.069 1.969-2.523 3.366-.455 1.396-.683 3.977-.683 7.744v15.265h-8.919v-33.705h8.284v4.951c2.941-3.809 6.644-5.713 11.109-5.713 1.967 0 3.765.355 5.395 1.064 1.629.708 2.862 1.612 3.697 2.712a9.857 9.857 0 0 1 1.747 3.746c.327 1.397.491 3.396.491 5.998v20.947ZM788.122 118.471h9.395v25.2c0 3.999.115 6.591.348 7.776.402 1.904 1.36 3.433 2.872 4.587 1.513 1.153 3.582 1.729 6.206 1.729 2.666 0 4.675-.545 6.03-1.635 1.353-1.089 2.169-2.427 2.444-4.014.275-1.587.412-4.222.412-7.904v-25.739h9.395v24.439c0 5.586-.254 9.532-.762 11.837-.508 2.307-1.444 4.254-2.808 5.84-1.366 1.588-3.19 2.852-5.475 3.793-2.285.942-5.27 1.412-8.951 1.412-4.444 0-7.813-.512-10.109-1.539-2.296-1.025-4.11-2.358-5.442-3.999-1.334-1.639-2.212-3.358-2.635-5.157-.614-2.666-.92-6.601-.92-11.807v-24.819ZM865.722 164.999h-8.918v-17.202c0-3.638-.191-5.993-.571-7.061-.381-1.069-1-1.9-1.857-2.492-.857-.592-1.889-.889-3.095-.889-1.544 0-2.93.424-4.157 1.269-1.227.847-2.069 1.969-2.523 3.366-.455 1.396-.683 3.977-.683 7.744v15.265h-8.919v-33.705h8.284v4.951c2.941-3.809 6.644-5.713 11.109-5.713 1.968 0 3.765.355 5.395 1.064 1.629.708 2.862 1.612 3.698 2.712a9.855 9.855 0 0 1 1.746 3.746c.327 1.397.491 3.396.491 5.998v20.947ZM874.768 164.999v-33.705h8.918v33.705h-8.918Zm0-38.276v-8.252h8.918v8.252h-8.918ZM899.904 148.146c0 3.344.794 5.904 2.38 7.682 1.588 1.777 3.544 2.666 5.872 2.666s4.28-.889 5.856-2.666c1.576-1.778 2.364-4.36 2.364-7.745 0-3.3-.788-5.839-2.364-7.617-1.576-1.777-3.528-2.666-5.856-2.666s-4.284.889-5.872 2.666c-1.586 1.778-2.38 4.337-2.38 7.68Zm-9.14-.476c0-2.962.729-5.829 2.19-8.6 1.459-2.773 3.528-4.889 6.204-6.348 2.677-1.46 5.665-2.19 8.966-2.19 5.1 0 9.279 1.656 12.537 4.966 3.258 3.312 4.888 7.497 4.888 12.553 0 5.1-1.645 9.326-4.936 12.68-3.29 3.353-7.431 5.03-12.424 5.03-3.09 0-6.036-.698-8.84-2.095-2.804-1.396-4.936-3.443-6.395-6.141-1.461-2.697-2.19-5.983-2.19-9.855ZM963.19 164.999h-8.918v-17.202c0-3.638-.191-5.993-.572-7.061-.38-1.069-1-1.9-1.856-2.492-.857-.592-1.889-.889-3.095-.889-1.545 0-2.93.424-4.157 1.269-1.228.847-2.069 1.969-2.523 3.366-.456 1.396-.683 3.977-.683 7.744v15.265h-8.919v-33.705h8.284v4.951c2.941-3.809 6.644-5.713 11.109-5.713 1.967 0 3.765.355 5.395 1.064 1.629.708 2.861 1.612 3.697 2.712a9.84 9.84 0 0 1 1.746 3.746c.328 1.397.492 3.396.492 5.998v20.947Z" style="fill:#fff;fill-rule:nonzero;"/></svg>