<svg xmlns="http://www.w3.org/2000/svg" width="200" height="58" xml:space="preserve" style="fill-rule:evenodd;clip-rule:evenodd;stroke-linejoin:round;stroke-miterlimit:2;" viewBox="0 0 1339 364"><path d="M447.768 171.675c-4.575 0-8.138-1.32-10.646-3.87-2.55-2.596-3.825-6.292-3.825-11.042V75.346c0-4.879 1.275-8.575 3.825-11.125 2.554-2.554 6.246-3.829 11.129-3.829h51.992c3.65 0 6.379.925 8.267 2.817 1.891 1.891 2.816 4.575 2.816 8.091 0 3.521-.925 6.421-2.816 8.313-1.888 1.892-4.617 2.862-8.267 2.862H461.93v22.121h34.705c3.741 0 6.512.925 8.312 2.817 1.804 1.892 2.729 4.575 2.729 8.092 0 3.52-.925 6.379-2.729 8.27-1.8 1.892-4.571 2.817-8.312 2.817H461.93v30.217c0 9.983-4.704 14.954-14.162 14.954v-.088ZM564.46 90.215l-18.079 43.15-4.354-7.479h45.304l-4.529 7.479-18.079-43.15h-.308.045Zm-44.075 81.462c-3.208 0-5.891-.791-8.091-2.333-2.2-1.537-3.517-3.65-4.046-6.292-.529-2.637-.046-5.629 1.408-8.97l38.75-83.442c1.846-4.046 4.134-7.038 6.863-8.971 2.683-1.937 5.85-2.858 9.5-2.858 3.65 0 6.596.966 9.279 2.858 2.642 1.933 4.929 4.925 6.775 8.971l38.925 83.442c1.542 3.3 2.112 6.333 1.629 9.016-.483 2.684-1.758 4.796-3.825 6.292-2.071 1.496-4.708 2.242-7.921 2.242-3.958 0-7.079-.967-9.321-2.946-2.287-1.979-4.312-5.017-6.07-9.196l-8.405-19.617 11.042 8.096h-64.304l10.908-8.096-8.404 19.617c-1.758 4.267-3.65 7.346-5.583 9.283-1.979 1.934-4.971 2.904-9.017 2.904h-.092ZM659.513 149.111h23.354c5.279 0 9.15-1.012 11.612-3.033 2.467-2.025 3.654-5.017 3.654-8.975 0-4.133-1.233-7.258-3.654-9.279-2.417-2.025-6.287-3.038-11.612-3.038h-23.355v24.325Zm0-45.171h20.409c5.412 0 9.283-.925 11.7-2.816 2.375-1.846 3.562-4.709 3.562-8.579 0-3.871-1.187-6.684-3.562-8.488-2.375-1.804-6.288-2.725-11.7-2.725h-20.409v22.608Zm-12.27 66.15c-4.884 0-8.58-1.275-11.13-3.825-2.55-2.55-3.825-6.245-3.825-11.129V75.261c0-4.883 1.275-8.579 3.826-11.129 2.549-2.55 6.245-3.825 11.129-3.825h38.004c7.871 0 14.558 1.142 20.1 3.429 5.496 2.288 9.721 5.542 12.666 9.809 2.946 4.266 4.442 9.279 4.442 15.087 0 6.421-1.846 11.921-5.542 16.496-3.695 4.571-8.62 7.737-14.866 9.5v-2.642c7.391 1.454 13.108 4.446 17.2 9.017 4.087 4.575 6.158 10.558 6.158 17.904 0 9.633-3.475 17.242-10.337 22.829-6.863 5.584-16.363 8.313-28.417 8.313h-39.408v.041ZM802.465 113.571h28.808c8.492 0 14.958-1.804 19.312-5.366 4.355-3.563 6.555-8.971 6.555-16.1 0-7.125-2.2-12.225-6.555-15.788-4.354-3.562-10.82-5.367-19.312-5.367h-28.808v42.667-.046Zm-6.38 57.621c-2.066 0-3.65-.617-4.75-1.804-1.1-1.188-1.625-2.813-1.625-4.925V66.859c0-2.2.571-3.825 1.713-4.925 1.146-1.1 2.729-1.629 4.842-1.629h36.9c11.745 0 20.762 2.77 27.095 8.27 6.334 5.496 9.5 13.325 9.5 23.53 0 6.425-1.404 12.008-4.266 16.758-2.859 4.708-7.038 8.317-12.534 10.733-5.5 2.421-12.095 3.65-19.795 3.65l1.541-2.021h3.121c4.05 0 7.567 1.055 10.604 3.121 2.988 2.067 5.759 5.413 8.267 9.988l14.954 27.883c.838 1.454 1.233 2.863 1.188 4.267-.042 1.408-.525 2.554-1.496 3.433-.921.879-2.288 1.321-4.046 1.321-1.758 0-3.208-.4-4.354-1.233-1.142-.838-2.113-2.025-2.946-3.563l-16.979-31.45c-2.375-4.442-5.146-7.433-8.271-8.975-3.121-1.537-7.213-2.242-12.313-2.242H802.51v40.775c0 2.067-.529 3.696-1.541 4.925-1.054 1.188-2.638 1.805-4.838 1.805l-.046-.088ZM899.452 170.092c-2.287 0-4.046-.617-5.233-1.804-1.188-1.188-1.804-2.946-1.804-5.233V67.3c0-2.287.616-4.004 1.804-5.237 1.187-1.229 2.946-1.8 5.233-1.8h57.929c1.759 0 3.121.483 4.046 1.404.925.925 1.408 2.246 1.408 3.917 0 1.758-.483 3.121-1.408 4.046-.925.925-2.287 1.408-4.046 1.408h-52.475v38.004h49.221c1.758 0 3.121.438 4.046 1.317.925.879 1.408 2.2 1.408 3.958 0 1.763-.483 3.125-1.408 4.05-.925.921-2.288 1.404-4.046 1.404h-49.221v39.546h52.475c1.759 0 3.121.483 4.046 1.404.925.925 1.408 2.246 1.408 3.917 0 1.758-.483 3.125-1.408 4.046-.925.925-2.287 1.408-4.046 1.408h-57.929ZM1032.2 171.5c-11.746 0-21.641-2.242-29.646-6.688-8.05-4.442-14.162-10.908-18.3-19.308-4.133-8.4-6.246-18.475-6.246-30.217 0-8.708 1.188-16.537 3.521-23.533 2.329-6.95 5.763-12.842 10.292-17.684 4.529-4.837 10.029-8.575 16.496-11.212 6.466-2.642 13.812-3.963 22.037-3.963 6.554 0 12.888.925 19 2.73 6.113 1.804 11.567 4.708 16.363 8.62 1.233.925 2.025 1.98 2.333 3.125.304 1.142.304 2.284-.091 3.43-.396 1.141-.921 2.112-1.713 2.858-.792.792-1.763 1.233-2.95 1.321-1.188.087-2.417-.267-3.65-1.1-4.267-3.3-8.754-5.717-13.546-7.259-4.75-1.495-10.075-2.241-15.879-2.241-8.313 0-15.35 1.758-21.113 5.275-5.762 3.521-10.116 8.625-13.062 15.266-2.95 6.642-4.446 14.734-4.446 24.28 0 14.512 3.388 25.641 10.208 33.341 6.771 7.696 17.063 11.521 30.742 11.521 4.971 0 9.854-.483 14.65-1.496a74.57 74.57 0 0 0 13.546-4.133l-2.813 7.3v-38.75h-22.258c-1.846 0-3.254-.483-4.221-1.408-.971-.921-1.408-2.196-1.408-3.738 0-1.671.483-2.904 1.408-3.737.921-.838 2.329-1.234 4.221-1.234h27.888c1.758 0 3.12.484 4.045 1.409.925.925 1.409 2.287 1.409 4.045v40.642c0 1.542-.267 2.863-.792 3.871-.529 1.058-1.408 1.804-2.642 2.333-4.354 1.759-9.587 3.254-15.658 4.442-6.071 1.187-11.962 1.804-17.679 1.804l-.046.088ZM1099.89 171.192c-2.067 0-3.651-.617-4.751-1.805-1.1-1.187-1.629-2.812-1.629-4.924V65.892c0-2.2.529-3.83 1.629-4.971 1.1-1.142 2.684-1.717 4.75-1.717 2.067 0 3.65.575 4.75 1.717 1.1 1.141 1.63 2.817 1.63 4.971v98.571c0 2.066-.53 3.695-1.542 4.924-1.054 1.188-2.638 1.805-4.838 1.805M1178.27 160.151c7.875 0 14.559-1.758 20.013-5.279 5.454-3.517 9.633-8.662 12.537-15.396 2.9-6.729 4.354-14.821 4.354-24.279 0-14.204-3.212-25.246-9.587-33.075-6.379-7.829-15.483-11.746-27.317-11.746-7.696 0-14.25 1.763-19.704 5.279-5.454 3.521-9.633 8.621-12.537 15.35-2.905 6.688-4.355 14.78-4.355 24.192 0 14.121 3.213 25.163 9.634 33.079 6.421 7.959 15.396 11.921 26.916 11.921l.046-.046Zm0 11.35c-10.162 0-19-2.287-26.566-6.95-7.521-4.621-13.33-11.129-17.417-19.529-4.092-8.404-6.158-18.387-6.158-29.912 0-8.709 1.187-16.538 3.516-23.442 2.333-6.908 5.675-12.758 10.029-17.596 4.354-4.837 9.634-8.575 15.792-11.217 6.158-2.637 13.108-3.958 20.804-3.958 10.379 0 19.354 2.288 26.875 6.863 7.521 4.575 13.329 11.041 17.417 19.395 4.092 8.359 6.158 18.3 6.158 29.825 0 8.709-1.187 16.538-3.562 23.53-2.375 6.995-5.763 12.887-10.117 17.77-4.354 4.884-9.633 8.621-15.792 11.305-6.158 2.637-13.15 3.958-20.933 3.958l-.046-.042ZM1256.3 171.192c-1.979 0-3.475-.529-4.529-1.629-1.058-1.096-1.542-2.684-1.542-4.75V65.804c0-2.066.529-3.696 1.542-4.837 1.054-1.146 2.375-1.717 4.046-1.717 1.671 0 2.858.308 3.65.879.791.571 1.671 1.584 2.729 3.034l67.867 90.479h-3.738V65.496c0-1.979.529-3.521 1.538-4.575 1.058-1.1 2.554-1.629 4.533-1.629 1.846 0 3.296.529 4.267 1.629.966 1.1 1.495 2.637 1.495 4.575l.001 99.496c0 1.979-.442 3.516-1.321 4.571-.88 1.1-2.154 1.629-3.83 1.629-1.537 0-2.812-.309-3.737-.925-.925-.613-1.933-1.625-2.946-2.946l-67.737-90.479h3.562v87.971c0 2.066-.529 3.654-1.537 4.75-1.059 1.1-2.509 1.629-4.359 1.629h.046ZM443.193 288.808h14.163c3.562 0 6.204-.704 7.875-2.067 1.671-1.408 2.508-3.475 2.508-6.246 0-2.77-.837-4.925-2.508-6.291-1.671-1.363-4.313-2.067-7.875-2.067h-14.163v16.671Zm0-24.325h12.842c3.475 0 6.071-.658 7.742-2.021 1.716-1.321 2.554-3.3 2.554-5.937 0-2.642-.838-4.621-2.554-5.942-1.713-1.317-4.309-2.021-7.742-2.021h-12.842v15.921Zm-4.312 31.933c-1.713 0-3.033-.437-3.958-1.362-.921-.925-1.363-2.242-1.363-3.959v-44.779c0-1.712.442-3.033 1.363-3.958.925-.921 2.245-1.363 3.958-1.363h18.871c3.871 0 7.171.571 9.896 1.717 2.729 1.142 4.795 2.813 6.245 4.971 1.455 2.154 2.159 4.704 2.159 7.696 0 3.341-.971 6.204-2.904 8.487-1.938 2.334-4.575 3.871-7.963 4.663v-1.188c3.871.575 6.908 2.025 9.063 4.4 2.154 2.375 3.208 5.413 3.208 9.192 0 4.929-1.671 8.754-5.013 11.437-3.341 2.684-7.962 4.046-13.9 4.046h-19.75.088ZM505.345 297.209c-4.355 0-8.092-.792-11.259-2.421-3.171-1.625-5.587-3.912-7.258-6.904-1.717-2.992-2.554-6.554-2.554-10.646 0-4.087.837-7.475 2.466-10.466 1.671-2.992 3.913-5.321 6.859-7.038 2.904-1.717 6.246-2.55 9.941-2.55 2.73 0 5.192.438 7.346 1.317s4.046 2.2 5.588 3.871c1.537 1.67 2.725 3.695 3.516 6.116.838 2.375 1.234 5.059 1.234 8.046 0 .925-.309 1.675-.967 2.158-.662.484-1.583.746-2.771.746h-25.25v-5.675h22.125l-1.275 1.188c0-2.417-.354-4.442-1.054-6.067-.704-1.629-1.717-2.862-3.079-3.742-1.321-.879-2.992-1.274-5.017-1.274-2.2 0-4.091.529-5.629 1.541-1.542 1.009-2.729 2.463-3.521 4.309-.833 1.849-1.229 4.091-1.229 6.641v.571c0 4.312 1.013 7.525 3.033 9.633 2.025 2.113 5.017 3.167 8.93 3.167 1.362 0 2.904-.175 4.62-.525a17.315 17.315 0 0 0 4.838-1.763c1.1-.612 2.067-.92 2.904-.833.833.088 1.496.396 2.021.925.483.525.792 1.188.925 1.933.087.75 0 1.542-.442 2.334-.396.791-1.054 1.45-2.021 2.021a20.274 20.274 0 0 1-6.333 2.55c-2.375.529-4.621.837-6.642.837h-.045ZM533.451 297.078c-1.629 0-2.858-.442-3.737-1.275-.879-.838-1.321-2.113-1.321-3.738v-29.737c0-1.625.442-2.859 1.275-3.692.837-.838 2.025-1.275 3.562-1.275 1.542 0 2.684.437 3.521 1.275.834.833 1.275 2.067 1.275 3.692v4.97h-.791c.745-3.166 2.154-5.541 4.308-7.166 2.158-1.629 5.017-2.596 8.579-2.904 1.1-.088 1.979.175 2.638.833.662.662 1.058 1.675 1.145 3.037.088 1.321-.175 2.375-.925 3.167-.704.833-1.758 1.321-3.166 1.45l-1.717.175c-3.208.308-5.629 1.279-7.258 2.95-1.625 1.671-2.417 3.958-2.417 6.95v16.275c0 1.625-.442 2.858-1.275 3.738-.837.879-2.067 1.275-3.696 1.275M575.501 288.016c2.025 0 3.783-.483 5.279-1.408 1.45-.921 2.596-2.288 3.429-4.046.792-1.758 1.234-3.825 1.234-6.246 0-3.608-.88-6.466-2.684-8.533-1.804-2.067-4.179-3.121-7.258-3.121-2.025 0-3.783.483-5.279 1.404-1.496.925-2.596 2.288-3.429 4.004-.838 1.717-1.234 3.825-1.234 6.2 0 3.609.879 6.467 2.684 8.58 1.804 2.112 4.179 3.12 7.258 3.12v.046Zm.221 23.354c-2.817 0-5.588-.262-8.225-.791-2.642-.525-5.059-1.317-7.217-2.417-1.008-.529-1.671-1.146-2.021-1.892a3.628 3.628 0 0 1-.308-2.241 4.28 4.28 0 0 1 .925-2.025 3.76 3.76 0 0 1 1.846-1.188c.746-.221 1.496-.087 2.287.309 2.288 1.141 4.488 1.891 6.554 2.241 2.067.354 3.825.529 5.321.529 3.521 0 6.159-.837 7.917-2.55 1.762-1.716 2.642-4.225 2.642-7.612v-7.079h.704c-.792 2.683-2.421 4.791-4.929 6.421-2.505 1.583-5.321 2.375-8.442 2.375-3.475 0-6.467-.792-9.063-2.375-2.55-1.584-4.575-3.825-5.983-6.73-1.408-2.904-2.108-6.245-2.108-10.075 0-2.9.395-5.495 1.229-7.829.791-2.329 1.979-4.354 3.475-6.025 1.496-1.671 3.3-2.991 5.408-3.871 2.113-.925 4.488-1.362 7.042-1.362 3.254 0 6.112.792 8.529 2.421 2.421 1.583 4.05 3.691 4.754 6.333l-.792 1.979v-5.587c0-1.629.438-2.859 1.275-3.696.88-.833 2.067-1.275 3.563-1.275s2.771.442 3.604 1.275c.838.837 1.279 2.067 1.279 3.696v30.304c0 6.246-1.675 10.954-4.971 14.075-3.3 3.171-8.095 4.708-14.383 4.708l.088-.046ZM609.325 296.989c-1.583 0-2.77-.483-3.608-1.408-.833-.921-1.275-2.242-1.275-3.913v-28.854c0-1.717.442-3.079 1.275-3.958.838-.925 2.071-1.367 3.608-1.367 1.538 0 2.771.442 3.65 1.367.88.921 1.275 2.241 1.275 3.958v28.854c0 1.671-.437 2.992-1.275 3.913-.833.925-2.066 1.408-3.695 1.408h.045Zm0-46.887c-1.845 0-3.254-.442-4.266-1.363-1.013-.925-1.538-2.2-1.538-3.829 0-1.625.525-2.946 1.538-3.871 1.012-.879 2.462-1.317 4.266-1.317 1.805 0 3.342.438 4.313 1.317 1.008.879 1.492 2.2 1.492 3.871 0 1.671-.484 2.904-1.492 3.829-1.013.921-2.421 1.363-4.313 1.363M637.08 297.209c-2.242 0-4.663-.221-7.171-.704-2.504-.483-4.75-1.275-6.771-2.421-.837-.525-1.454-1.141-1.762-1.846-.35-.704-.484-1.408-.396-2.112a3.508 3.508 0 0 1 .792-1.846 2.876 2.876 0 0 1 1.716-1.012c.704-.175 1.496 0 2.334.395 2.108 1.013 4.045 1.671 5.891 2.067 1.846.396 3.65.575 5.413.575 2.504 0 4.396-.442 5.629-1.321 1.229-.879 1.846-2.025 1.846-3.429 0-1.192-.396-2.158-1.229-2.817-.838-.658-2.025-1.145-3.654-1.45l-7.871-1.495c-3.255-.617-5.721-1.805-7.434-3.563-1.716-1.762-2.554-4.05-2.554-6.821 0-2.504.704-4.704 2.071-6.554 1.404-1.846 3.296-3.254 5.804-4.267 2.463-1.008 5.279-1.495 8.488-1.495 2.287 0 4.487.266 6.512.75 2.021.483 3.958 1.275 5.85 2.329.792.441 1.321.971 1.625 1.675.308.704.354 1.362.179 2.066a5.094 5.094 0 0 1-.925 1.892c-.441.571-1.054.879-1.758 1.008-.704.134-1.496 0-2.421-.437-1.629-.838-3.167-1.45-4.662-1.804-1.496-.35-2.904-.529-4.267-.529-2.55 0-4.487.441-5.717 1.32-1.233.88-1.85 2.067-1.85 3.563 0 1.1.355 2.025 1.1 2.771.75.75 1.85 1.233 3.388 1.496l7.875 1.495c3.429.617 5.979 1.805 7.741 3.475 1.759 1.671 2.638 3.917 2.638 6.775 0 3.825-1.496 6.817-4.488 9.017-2.991 2.2-6.991 3.254-11.962 3.254M678.47 297.209c-4.045 0-7.566-.837-10.558-2.462-2.987-1.671-5.321-4.005-6.904-7.038-1.625-3.037-2.421-6.6-2.421-10.687 0-3.079.442-5.85 1.367-8.317.921-2.417 2.241-4.529 3.958-6.2 1.717-1.717 3.825-3.033 6.288-3.917 2.466-.921 5.237-1.362 8.27-1.362 1.717 0 3.609.221 5.63.704a19.656 19.656 0 0 1 5.72 2.375c.834.529 1.405 1.146 1.671 1.892.263.75.309 1.495.175 2.241-.133.75-.483 1.409-.966 1.979-.484.575-1.1.884-1.85 1.013-.746.133-1.538 0-2.417-.525a15.91 15.91 0 0 0-3.563-1.542c-1.233-.35-2.375-.529-3.475-.529-1.716 0-3.258.267-4.575.838-1.32.57-2.42 1.32-3.341 2.375-.925 1.012-1.629 2.287-2.071 3.825-.438 1.541-.704 3.3-.704 5.279 0 3.871.925 6.95 2.816 9.15 1.846 2.241 4.488 3.341 7.917 3.341 1.1 0 2.246-.175 3.433-.483a13.69 13.69 0 0 0 3.563-1.496c.879-.483 1.671-.616 2.375-.483.704.175 1.317.529 1.758 1.054.484.529.746 1.192.879 1.983.088.746 0 1.492-.262 2.242-.267.746-.838 1.321-1.629 1.804a19.399 19.399 0 0 1-5.496 2.288c-1.938.483-3.783.704-5.5.704l-.088-.046ZM702.31 297.078c-1.583-.001-2.77-.442-3.608-1.276-.833-.879-1.275-2.112-1.275-3.737v-46.713c0-1.629.396-2.862 1.275-3.695.879-.838 2.025-1.275 3.608-1.275 1.584 0 2.771.437 3.65 1.275.88.833 1.275 2.066 1.275 3.695v20.363h-1.1c1.146-2.771 2.95-4.883 5.413-6.333 2.462-1.45 5.192-2.155 8.312-2.155 3.125 0 5.63.571 7.655 1.717 1.979 1.142 3.475 2.9 4.487 5.233 1.008 2.33 1.496 5.28 1.496 8.842v19.046c0 1.625-.442 2.858-1.279 3.738-.834.879-2.021 1.274-3.604 1.274-1.584 0-2.771-.441-3.65-1.274-.884-.838-1.321-2.113-1.321-3.738v-18.563c0-2.991-.571-5.145-1.671-6.554-1.146-1.362-2.858-2.025-5.233-2.025-2.905 0-5.192.925-6.909 2.729-1.716 1.805-2.55 4.221-2.55 7.213v17.242c0 3.341-1.671 5.058-4.971 5.058v-.088ZM761.69 297.209c-4.354 0-8.091-.792-11.258-2.421-3.125-1.625-5.587-3.912-7.258-6.904-1.671-2.992-2.554-6.554-2.554-10.646 0-4.087.837-7.475 2.466-10.466 1.671-2.992 3.913-5.321 6.859-7.038 2.904-1.717 6.245-2.55 9.941-2.55 2.729 0 5.192.438 7.346 1.317 2.2.879 4.046 2.2 5.588 3.871 1.537 1.67 2.725 3.695 3.516 6.116.792 2.375 1.234 5.059 1.234 8.046 0 .925-.355 1.675-.967 2.158-.663.484-1.583.746-2.771.746h-25.25v-5.675h22.125l-1.275 1.188c0-2.417-.354-4.442-1.054-6.067-.704-1.629-1.717-2.862-3.079-3.742-1.321-.879-2.992-1.274-5.017-1.274-2.2 0-4.092.529-5.629 1.541-1.542 1.009-2.729 2.463-3.521 4.309-.792 1.849-1.229 4.091-1.229 6.641v.571c0 4.312 1.012 7.525 3.033 9.633 2.025 2.113 5.017 3.167 8.929 3.167 1.363 0 2.905-.175 4.621-.525a17.315 17.315 0 0 0 4.838-1.763c1.1-.612 2.066-.92 2.904-.833.833.088 1.496.396 2.021.925.483.525.791 1.188.925 1.933.087.75 0 1.542-.442 2.334-.396.791-1.054 1.45-2.021 2.021a20.274 20.274 0 0 1-6.333 2.55c-2.375.529-4.621.837-6.642.837h-.046ZM798.99 297.209c-2.242 0-4.663-.221-7.171-.704-2.504-.483-4.75-1.275-6.771-2.421-.838-.525-1.454-1.141-1.763-1.846-.35-.704-.483-1.408-.395-2.112a3.515 3.515 0 0 1 .791-1.846 2.881 2.881 0 0 1 1.717-1.012c.704-.175 1.496 0 2.333.395 2.109 1.013 4.046 1.671 5.892 2.067 1.846.396 3.65.575 5.412.575 2.505 0 4.396-.442 5.63-1.321 1.229-.879 1.845-2.025 1.845-3.429 0-1.192-.395-2.158-1.229-2.817-.837-.658-2.025-1.145-3.654-1.45l-7.871-1.495c-3.254-.617-5.721-1.805-7.433-3.563-1.717-1.762-2.554-4.05-2.554-6.821 0-2.504.704-4.704 2.071-6.554 1.404-1.846 3.295-3.254 5.804-4.267 2.462-1.008 5.279-1.495 8.487-1.495 2.288 0 4.488.266 6.513.75 2.021.483 3.958 1.275 5.85 2.329.791.441 1.321.971 1.625 1.675.308.704.354 1.362.179 2.066a5.094 5.094 0 0 1-.925 1.892c-.442.571-1.054.879-1.758 1.008-.705.134-1.496 0-2.421-.437-1.629-.838-3.167-1.45-4.663-1.804-1.496-.35-2.904-.529-4.266-.529-2.55 0-4.488.441-5.717 1.32-1.233.88-1.85 2.067-1.85 3.563 0 1.1.354 2.025 1.1 2.771.75.75 1.85 1.233 3.387 1.496l7.875 1.495c3.43.617 5.98 1.805 7.742 3.475 1.758 1.671 2.638 3.917 2.638 6.775 0 3.825-1.496 6.817-4.488 9.017-2.992 2.2-6.992 3.254-11.962 3.254M864.704 297.209c-2.329 0-4.617-.175-6.904-.529a37.325 37.325 0 0 1-6.555-1.583c-2.025-.705-3.87-1.584-5.5-2.638-.925-.617-1.583-1.408-1.979-2.287-.35-.88-.483-1.759-.35-2.638a4.68 4.68 0 0 1 1.009-2.287c.529-.663 1.233-1.059 2.07-1.234.834-.175 1.759.088 2.771.704a26.422 26.422 0 0 0 7.3 2.992c2.55.617 5.279.921 8.092.921 4.137 0 7.171-.7 9.062-2.067 1.892-1.404 2.817-3.166 2.817-5.408 0-1.846-.662-3.3-2.025-4.313-1.321-1.054-3.65-1.933-6.862-2.591l-8.663-1.804c-4.971-1.059-8.712-2.817-11.129-5.325-2.421-2.505-3.65-5.763-3.65-9.85 0-2.555.525-4.93 1.583-6.996 1.054-2.109 2.55-3.913 4.442-5.409 1.892-1.541 4.179-2.683 6.862-3.52 2.638-.834 5.584-1.23 8.75-1.23 3.171 0 6.159.396 8.975 1.188 2.817.792 5.367 1.933 7.609 3.475.837.571 1.408 1.275 1.671 2.108.266.838.354 1.675.179 2.467-.179.792-.529 1.492-1.1 2.067-.575.57-1.275.92-2.159 1.012-.879.088-1.845-.179-2.945-.792-1.934-1.1-3.913-1.891-5.892-2.379-1.979-.483-4.138-.7-6.467-.7-2.333 0-4.487.35-6.204 1.009-1.712.662-3.033 1.629-3.958 2.862-.921 1.229-1.363 2.679-1.363 4.354 0 1.892.617 3.384 1.892 4.529 1.275 1.142 3.429 2.025 6.467 2.638l8.575 1.804c5.191 1.1 9.062 2.817 11.612 5.192 2.55 2.375 3.829 5.496 3.829 9.454 0 2.508-.529 4.796-1.541 6.862-1.013 2.025-2.509 3.784-4.4 5.28-1.934 1.45-4.221 2.595-6.905 3.387-2.683.792-5.675 1.188-9.062 1.188l.046.087ZM910.624 297.209c-3.429 0-6.246-.571-8.533-1.717-2.288-1.141-3.958-2.858-5.058-5.058-1.1-2.242-1.671-5.012-1.671-8.312v-16.759h-4.092c-1.275 0-2.242-.308-2.904-.966-.7-.659-1.008-1.542-1.008-2.73 0-1.187.35-2.108 1.008-2.77.662-.613 1.675-.921 2.904-.921h4.092v-7.171c0-1.629.437-2.858 1.275-3.696.879-.833 2.066-1.275 3.65-1.275 1.583 0 2.771.442 3.608 1.275.833.838 1.275 2.067 1.275 3.696v7.171h8.358c1.275 0 2.242.308 2.9.921.663.616 1.013 1.541 1.013 2.77 0 1.234-.35 2.071-1.013 2.73-.7.658-1.67.966-2.9.966h-8.358v16.188c0 2.508.571 4.4 1.671 5.675 1.1 1.275 2.904 1.892 5.367 1.892.879 0 1.67-.092 2.375-.221a10.945 10.945 0 0 1 1.804-.309c.616-.046 1.141.134 1.583.571.396.442.617 1.363.617 2.729 0 1.055-.179 1.98-.529 2.771-.35.833-.967 1.363-1.846 1.671-.704.221-1.584.396-2.684.571-1.1.175-2.066.262-2.904.262v.046ZM948.144 249.793c-1.584 0-2.771-.396-3.609-1.275-.833-.837-1.275-2.025-1.275-3.608 0-1.583.442-2.683 1.275-3.563.838-.833 2.025-1.275 3.609-1.275 1.583 0 2.683.442 3.521 1.275.833.838 1.275 2.025 1.275 3.563 0 1.542-.396 2.771-1.234 3.608-.791.834-2.025 1.275-3.562 1.275m-14.867 0c-1.542 0-2.729-.396-3.562-1.275-.88-.837-1.275-2.025-1.275-3.608 0-1.583.437-2.683 1.275-3.563.879-.833 2.066-1.275 3.562-1.275s2.771.442 3.608 1.275c.834.838 1.275 2.025 1.275 3.563 0 1.542-.441 2.771-1.275 3.608-.837.834-2.025 1.275-3.608 1.275m3.213 47.417c-2.775 0-5.28-.529-7.434-1.629-2.158-1.1-3.871-2.55-5.104-4.354-1.233-1.846-1.846-3.913-1.846-6.2 0-2.817.746-5.059 2.196-6.73 1.454-1.675 3.871-2.862 7.171-3.562 3.3-.75 7.742-1.1 13.283-1.1h3.917v5.671h-3.871c-3.254 0-5.85.179-7.787.487-1.934.304-3.3.834-4.134 1.625-.791.75-1.233 1.804-1.233 3.167 0 1.717.617 3.167 1.804 4.267 1.188 1.1 2.904 1.67 5.017 1.67 1.712 0 3.254-.395 4.616-1.229 1.321-.791 2.375-1.937 3.167-3.346.792-1.404 1.188-3.033 1.188-4.879v-9.062c0-2.638-.571-4.529-1.717-5.675-1.142-1.142-3.079-1.713-5.804-1.713-1.542 0-3.167.175-4.925.525-1.763.354-3.609 1.013-5.542 1.892-1.012.483-1.892.617-2.642.396-.745-.221-1.362-.659-1.758-1.275-.442-.659-.617-1.363-.617-2.154 0-.792.221-1.542.617-2.334.396-.791 1.142-1.316 2.113-1.671 2.416-1.012 4.75-1.716 6.95-2.112a31.684 31.684 0 0 1 6.112-.613c3.783 0 6.904.571 9.325 1.713 2.417 1.146 4.267 2.904 5.454 5.237 1.188 2.33 1.804 5.321 1.804 9.017v18.867c0 1.629-.395 2.858-1.187 3.741-.792.88-1.938 1.275-3.388 1.275-1.454 0-2.595-.441-3.433-1.275-.833-.883-1.229-2.112-1.229-3.741v-3.784h.617c-.355 1.85-1.1 3.434-2.159 4.755-1.1 1.316-2.416 2.375-4.046 3.12-1.625.75-3.475 1.1-5.587 1.1l.092-.087ZM983.815 289.732c1.938 0 3.65-.484 5.105-1.409 1.45-.921 2.591-2.329 3.429-4.221.791-1.85 1.233-4.179 1.233-6.95 0-4.179-.883-7.345-2.683-9.412-1.804-2.067-4.138-3.125-7.084-3.125-1.933 0-3.65.442-5.104 1.367-1.45.92-2.591 2.283-3.429 4.175-.792 1.85-1.233 4.179-1.233 6.95 0 4.137.883 7.258 2.683 9.412 1.804 2.113 4.138 3.167 7.083 3.167v.046Zm-2.77 7.479c-3.342 0-6.292-.792-8.842-2.421-2.55-1.629-4.529-3.958-5.938-6.95-1.408-3.033-2.112-6.554-2.112-10.646 0-4.087.704-7.696 2.112-10.642 1.409-2.95 3.388-5.279 5.938-6.908 2.55-1.625 5.5-2.417 8.842-2.417 3.341 0 5.983.792 8.4 2.375 2.375 1.584 4.004 3.65 4.837 6.2h-.879v-20.45c0-1.629.442-2.862 1.275-3.695.837-.838 2.071-1.275 3.608-1.275 1.542 0 2.771.437 3.65 1.275.879.833 1.275 2.066 1.275 3.695v46.709c0 1.629-.437 2.862-1.275 3.741-.833.88-2.021 1.275-3.604 1.275-1.583 0-2.771-.441-3.608-1.275-.838-.879-1.275-2.112-1.275-3.741v-6.113l.879 2.375c-.792 2.729-2.375 4.929-4.796 6.554-2.417 1.63-5.233 2.421-8.487 2.421v-.087ZM1031.76 297.209c-3.43 0-6.246-.571-8.534-1.717-2.287-1.141-3.958-2.858-5.058-5.058-1.1-2.242-1.671-5.012-1.671-8.312v-16.759h-4.092c-1.275 0-2.241-.308-2.904-.966-.7-.659-1.008-1.542-1.008-2.73 0-1.187.35-2.108 1.008-2.77.663-.613 1.675-.921 2.904-.921h4.092v-7.171c0-1.629.438-2.858 1.275-3.696.879-.833 2.067-1.275 3.65-1.275 1.583 0 2.771.442 3.608 1.275.834.838 1.275 2.067 1.275 3.696v7.171h8.359c1.275 0 2.241.308 2.9.921.662.616 1.012 1.541 1.012 2.77 0 1.234-.35 2.071-1.012 2.73-.7.658-1.671.966-2.9.966h-8.359v16.188c0 2.508.571 4.4 1.671 5.675 1.1 1.275 2.904 1.892 5.367 1.892.879 0 1.671-.092 2.375-.221a10.945 10.945 0 0 1 1.804-.309c.617-.046 1.142.134 1.583.571.396.442.617 1.363.617 2.729 0 1.055-.179 1.98-.529 2.771-.35.833-.967 1.363-1.846 1.671-.704.221-1.583.396-2.683.571-1.1.175-2.067.262-2.904.262v.046ZM1062.81 297.209c-4.354 0-8.092-.792-11.258-2.421-3.125-1.625-5.588-3.912-7.259-6.904-1.671-2.992-2.554-6.554-2.554-10.646 0-4.087.838-7.475 2.467-10.466 1.671-2.992 3.912-5.321 6.858-7.038 2.904-1.717 6.246-2.55 9.942-2.55 2.729 0 5.191.438 7.346 1.317 2.2.879 4.045 2.2 5.587 3.871 1.538 1.67 2.725 3.695 3.517 6.116.791 2.375 1.233 5.059 1.233 8.046 0 .925-.354 1.675-.967 2.158-.662.484-1.583.746-2.77.746h-25.25v-5.675h22.125l-1.275 1.188c0-2.417-.355-4.442-1.055-6.067-.704-1.629-1.716-2.862-3.079-3.742-1.321-.879-2.991-1.274-5.016-1.274-2.2 0-4.092.529-5.63 1.541-1.541 1.009-2.729 2.463-3.52 4.309-.792 1.849-1.23 4.091-1.23 6.641v.571c0 4.312 1.013 7.525 3.034 9.633 2.025 2.113 5.016 3.167 8.929 3.167 1.362 0 2.904-.175 4.621-.525a17.308 17.308 0 0 0 4.837-1.763c1.1-.612 2.067-.92 2.904-.833.834.088 1.492.396 2.021.925.484.525.792 1.188.925 1.933.088.75 0 1.542-.441 2.334-.396.791-1.055 1.45-2.021 2.021a20.28 20.28 0 0 1-6.334 2.55c-2.379.529-4.62.837-6.645.837h-.042ZM1104.12 289.732c1.934 0 3.65-.484 5.105-1.409 1.45-.921 2.591-2.329 3.429-4.221.837-1.85 1.233-4.179 1.233-6.95 0-4.179-.883-7.345-2.683-9.412-1.804-2.067-4.138-3.125-7.084-3.125-1.933 0-3.65.442-5.104 1.367-1.45.92-2.591 2.283-3.429 4.175-.837 1.85-1.233 4.179-1.233 6.95 0 4.137.883 7.258 2.683 9.412 1.804 2.113 4.138 3.167 7.083 3.167v.046Zm-2.77 7.479c-3.342 0-6.292-.792-8.842-2.421-2.55-1.629-4.529-3.958-5.938-6.95-1.408-3.033-2.112-6.554-2.112-10.646 0-4.087.704-7.696 2.112-10.642 1.409-2.95 3.388-5.279 5.938-6.908 2.55-1.625 5.5-2.417 8.842-2.417 3.341 0 5.983.792 8.4 2.375 2.375 1.584 4.004 3.65 4.837 6.2h-.879v-20.45c0-1.629.396-2.862 1.275-3.695.883-.838 2.025-1.275 3.608-1.275 1.584 0 2.817.437 3.65 1.275.879.833 1.275 2.066 1.275 3.695v46.709c0 1.629-.437 2.862-1.275 3.741-.833.88-2.021 1.275-3.604 1.275-1.583 0-2.771-.441-3.608-1.275-.838-.879-1.275-2.112-1.275-3.741v-6.113l.879 2.375c-.792 2.729-2.375 4.929-4.796 6.554-2.417 1.63-5.233 2.421-8.487 2.421v-.087ZM1137.85 297.078c-1.629 0-2.859-.442-3.738-1.275-.879-.88-1.275-2.113-1.275-3.738v-29.737c0-1.625.396-2.859 1.275-3.692.834-.838 2.021-1.275 3.517-1.275s2.683.437 3.521 1.275c.833.833 1.275 2.067 1.275 3.692v4.97h-.792c.746-3.166 2.2-5.541 4.308-7.166 2.159-1.629 5.017-2.596 8.58-2.904 1.1-.088 1.979.175 2.637.833.663.662 1.058 1.675 1.146 3.037.087 1.321-.175 2.375-.925 3.167-.704.833-1.758 1.321-3.167 1.45l-1.716.175c-3.209.308-5.63 1.279-7.259 2.95-1.625 1.671-2.417 3.958-2.417 6.95v16.275c0 1.625-.441 2.858-1.274 3.738-.838.879-2.067 1.275-3.696 1.275M1180.87 297.209c-4.354 0-8.092-.792-11.258-2.421-3.167-1.625-5.588-3.912-7.259-6.904-1.716-2.992-2.55-6.554-2.55-10.646 0-4.087.834-7.475 2.463-10.466 1.671-2.992 3.912-5.321 6.858-7.038 2.904-1.717 6.246-2.55 9.942-2.55 2.729 0 5.192.438 7.346 1.317s4.046 2.2 5.587 3.871c1.538 1.67 2.725 3.695 3.517 6.116.837 2.375 1.233 5.059 1.233 8.046 0 .925-.308 1.675-.966 2.158-.663.484-1.584.746-2.771.746h-25.25v-5.675h22.125l-1.275 1.188c0-2.417-.35-4.442-1.054-6.067-.705-1.629-1.717-2.862-3.08-3.742-1.32-.879-2.991-1.274-5.016-1.274-2.2 0-4.092.529-5.629 1.541-1.542 1.009-2.73 2.463-3.521 4.309-.834 1.849-1.229 4.091-1.229 6.641v.571c0 4.312 1.012 7.525 3.033 9.633 2.025 2.113 5.017 3.167 8.929 3.167 1.367 0 2.904-.175 4.621-.525a17.308 17.308 0 0 0 4.837-1.763c1.1-.612 2.067-.92 2.905-.833.833.088 1.495.396 2.02.925.484.525.792 1.188.925 1.933.088.75 0 1.542-.441 2.334-.396.791-1.054 1.45-2.021 2.021a20.274 20.274 0 0 1-6.333 2.55c-2.375.529-4.621.837-6.642.837h-.046ZM1208.8 296.989c-1.583 0-2.771-.483-3.608-1.408-.834-.921-1.275-2.242-1.275-3.913v-28.854c0-1.717.441-3.079 1.275-3.958.837-.925 2.07-1.367 3.608-1.367 1.537 0 2.771.442 3.65 1.367.879.921 1.275 2.241 1.275 3.958v28.854c0 1.671-.438 2.992-1.275 3.913-.833.925-2.067 1.408-3.696 1.408h.046Zm0-46.887c-1.846 0-3.254-.442-4.267-1.363-1.012-.925-1.537-2.2-1.537-3.829 0-1.625.525-2.946 1.537-3.871 1.013-.879 2.463-1.317 4.267-1.317 1.804 0 3.342.438 4.312 1.317 1.009.879 1.492 2.2 1.492 3.871 0 1.671-.483 2.904-1.492 3.829-1.012.921-2.42 1.363-4.312 1.363M1242.18 297.209c-4.355 0-8.092-.792-11.259-2.421-3.125-1.625-5.587-3.912-7.258-6.904-1.671-2.992-2.554-6.554-2.554-10.646 0-4.087.837-7.475 2.466-10.466 1.671-2.992 3.913-5.321 6.859-7.038 2.904-1.717 6.246-2.55 9.941-2.55 2.73 0 5.192.438 7.346 1.317 2.2.879 4.046 2.2 5.588 3.871 1.537 1.67 2.725 3.695 3.516 6.116.792 2.375 1.234 5.059 1.234 8.046 0 .925-.354 1.675-.967 2.158-.662.484-1.583.746-2.771.746h-25.25v-5.675h22.125l-1.275 1.188c0-2.417-.35-4.442-1.054-6.067-.704-1.629-1.717-2.862-3.079-3.742-1.321-.879-2.992-1.274-5.017-1.274-2.2 0-4.091.529-5.629 1.541-1.542 1.009-2.729 2.463-3.521 4.309-.791 1.849-1.229 4.091-1.229 6.641v.571c0 4.312 1.013 7.525 3.033 9.633 2.025 2.113 5.017 3.167 8.93 3.167 1.362 0 2.904-.175 4.62-.525a17.315 17.315 0 0 0 4.838-1.763c1.1-.612 2.067-.92 2.904-.833.833.088 1.496.396 2.021.925.483.525.792 1.188.925 1.933.087.75 0 1.542-.442 2.334-.396.791-1.054 1.45-2.021 2.021a20.274 20.274 0 0 1-6.333 2.55c-2.375.529-4.621.837-6.642.837h-.045ZM1283.75 297.209c-4.046 0-7.567-.837-10.559-2.462-2.987-1.671-5.32-4.005-6.904-7.038-1.625-3.037-2.416-6.6-2.416-10.687 0-3.079.437-5.85 1.362-8.317.921-2.417 2.242-4.529 3.958-6.2 1.717-1.717 3.825-3.033 6.288-3.917 2.467-.921 5.237-1.362 8.271-1.362 1.716 0 3.608.221 5.629.704a19.662 19.662 0 0 1 5.721 2.375c.833.529 1.404 1.146 1.671 1.892.262.75.308 1.495.175 2.241-.134.75-.484 1.409-.967 1.979-.483.575-1.1.884-1.85 1.013-.746.133-1.538 0-2.417-.525a15.923 15.923 0 0 0-3.562-1.542c-1.234-.35-2.375-.529-3.475-.529-1.717 0-3.254.267-4.575.838-1.321.57-2.421 1.32-3.342 2.375-.925 1.012-1.629 2.287-2.071 3.825-.437 1.541-.704 3.3-.704 5.279 0 3.871.925 6.95 2.817 9.15 1.846 2.241 4.487 3.341 7.916 3.341 1.1 0 2.246-.175 3.434-.483a13.683 13.683 0 0 0 3.562-1.496c.879-.483 1.671-.616 2.375-.483.704.175 1.317.529 1.759 1.054.483.529.745 1.192.879 1.983.087.746 0 1.492-.263 2.242-.266.746-.837 1.321-1.629 1.804a19.375 19.375 0 0 1-5.496 2.288c-1.937.483-3.783.704-5.5.704l-.087-.046ZM1307.55 297.077c-1.584 0-2.771-.441-3.609-1.275-.833-.879-1.275-2.112-1.275-3.737v-46.713c0-1.629.396-2.862 1.275-3.695.88-.838 2.025-1.275 3.609-1.275 1.583 0 2.771.437 3.65 1.275.879.833 1.275 2.066 1.275 3.695v29.03h.179l12.975-13.68c1.054-1.058 1.979-1.85 2.771-2.42.791-.571 1.846-.88 3.208-.88 1.367 0 2.421.355 3.125 1.055.704.704 1.054 1.541 1.054 2.554 0 1.012-.483 1.979-1.408 2.991l-13.679 14.471v-4.091l15.046 16.187c.92 1.008 1.362 2.021 1.274 3.033-.087 1.013-.529 1.846-1.274 2.509-.792.658-1.805.966-2.992.966-1.45 0-2.642-.308-3.521-.879s-1.846-1.45-2.858-2.596l-13.68-14.337h-.175v12.754c0 3.342-1.67 5.058-4.97 5.058" style="fill:#fff;fill-rule:nonzero;"/><path d="M287.926 128.746V74.6c0-11.258-6.025-21.642-15.746-27.317L197.626 4.225c-9.767-5.633-21.775-5.633-31.496 0L91.576 47.283C81.809 52.917 75.83 63.342 75.83 74.6v54.146c0 6.775 7.258 11.083 13.196 7.875l2.55-1.367 74.554-43.058a31.537 31.537 0 0 1 31.538 0l74.554 43.058 2.554 1.367c5.979 3.208 13.196-1.1 13.196-7.875h-.046Z" style="fill:#e9434c;fill-rule:nonzero;"/><path d="m62.633 148.671-46.887 27.05C5.979 181.35 0 191.734 0 203.038v86.121c0 11.262 6.025 21.687 15.746 27.271L90.3 359.492a31.559 31.559 0 0 0 31.537 0l46.888-27.05c5.896-3.387 5.983-11.833.221-15.396l-2.463-1.537-74.554-43.063c-9.767-5.629-15.75-16.054-15.75-27.316v-86.121l-.087-2.904c-.175-6.775-7.563-10.909-13.413-7.521l-.046.087Z" style="fill:#445eaa;fill-rule:nonzero;"/><path d="m301.033 148.671 46.888 27.05c9.767 5.629 15.746 16.013 15.746 27.317v86.121c0 11.262-6.025 21.687-15.746 27.271l-74.554 43.062a31.56 31.56 0 0 1-31.538 0l-46.887-27.05c-5.896-3.387-5.984-11.833-.221-15.396l2.462-1.537 74.555-43.063c9.766-5.629 15.75-16.054 15.75-27.316v-86.121l.087-2.904c.175-6.775 7.563-10.909 13.413-7.521l.045.087Z" style="fill:#13b375;fill-rule:nonzero;"/></svg>