<svg xmlns="http://www.w3.org/2000/svg" xml:space="preserve" style="fill-rule:evenodd;clip-rule:evenodd;stroke-linejoin:round;stroke-miterlimit:2;" viewBox="0 0 2205 454"><path d="M1989.95 451.867c-117.35 0-212.54-95.67-212.54-213.654V2.591h425.09v235.622c0 117.984-95.2 213.654-212.55 213.654Z" style="fill:#fff;"/><path d="M2204.63.457v237.756c0 119.152-96.14 215.787-214.68 215.787s-214.67-96.635-214.67-215.787V.457h429.35Zm-8 237.756c0 114.771-92.6 207.787-206.68 207.787-114.08 0-206.67-93.016-206.67-207.787V8.457h413.35v229.756Z" style="fill:#fff;stroke:#fff;stroke-width:1px;"/><path d="M1997.99 430.576a21.315 21.315 0 0 1-8.04 8.086 21.293 21.293 0 0 1-8-8.039c3.13-.475 5.97-1.797 8.04-4.297 2.06 2.416 4.88 3.748 8 4.25Zm-45.47-21.334a21.273 21.273 0 0 1-10.12-5.131 21.356 21.356 0 0 1 5.17-10.097c1.41 2.814 3.53 5.099 6.52 6.298-1.71 2.731-2.08 5.825-1.57 8.93Zm6.3-49.763c-.45-3.84.15-7.745 1.75-11.266 3.82-.426 7.7.197 11.2 1.797-2.26 2.226-3.78 4.97-3.98 8.215-3.09-.748-6.15-.172-8.97 1.254Zm49.27-9.446a21.267 21.267 0 0 1 11.25-1.818 21.166 21.166 0 0 1 1.75 11.209c-2.81-1.459-5.89-2.059-9.04-1.248-.24-3.168-1.73-5.903-3.96-8.143Zm24.21 43.94a21.31 21.31 0 0 1 5.2 10.14 21.258 21.258 0 0 1-10.11 5.131c.51-3.125.13-6.242-1.61-8.984 2.94-1.211 5.07-3.477 6.52-6.287Zm-42.35 7.914c-7.31 0-13.23-5.92-13.23-13.225 0-7.303 5.92-13.223 13.23-13.223 7.3 0 13.22 5.92 13.22 13.223 0 7.305-5.92 13.225-13.22 13.225ZM1793.94 19.124h162.15c-6.03 6.628-11.9 13.395-17.28 20.582-20.44 27.282-18.42 65.349-39.07 92.032-18.04 23.328-48.61 29.436-65.5 50.984-19.14 24.429-20.37 58.008-38.4 82.997a199.616 199.616 0 0 1-1.9-27.506V19.124Zm190.68 76.583v142.506c0 71.871-38.25 134.715-95.34 169.154-29.07-17.541-53.26-42.447-70-72.162 10.37-10.807 20.53-21.766 28.44-34.596 16.1-26.117 18.5-59.175 37.58-83.505 17.67-22.527 48.85-28.772 65.46-50.927 15.83-21.127 20.69-47.862 33.86-70.47Z" style="fill:#00a650;fill-rule:nonzero;"/><path d="M1995.29 19.124h190.67v219.089c0 71.871-38.25 134.715-95.331 169.154-57.089-34.439-95.339-97.283-95.339-169.154V19.124Zm182.79 126.582c0 12.785-11.55 18.312-11.55 27.858 0 11.295 11.16 16.748 11.16 27.647 0 11.267-8.86 13.175-14.6 11.227 0 0 3.59-.867 3.59-5.258 0-13.351-28.6-12.648-28.6-33.616 0-10.962 7.79-19.695 7.79-26.162 0-3.292-2.48-7.924-6.71-9.387 5.85-4.152 15.68-1.606 18.21 4.745 2.02-5.29 3.88-13.155 1.5-20.805 13.44 5.151 19.19 13.904 19.21 23.69v.061Zm-109.1-79.73c3.01 5.007 10.64-.006 10.64-.006s-9.25-8.766-10.64.006Zm47.4 278.336c0-6.607 6.49-12.32 7.14-12.873a6.428 6.428 0 0 0 6.82-9.062c17.61-31.442 12.95-36.006-14.36-58.313-7.47-6.104-9.77-23.962-9.77-40.371-10.86-25.361-40.19-22.417-51.25-47.312l12.82.696c6.58.356 11.2-3.621 13.389-6.891 2.041-3.055.031-7.224-3.28-6.103-1.49 4.108-5.51 7.369-9.949 7.129l-31.85-1.718c-6.33 6.301-4.97 15.413 6.11 20.173v4.755h7.6c2.7 8.594 2.8 16.29.29 21.48-6.06 0-12.9-7.235-12.9-7.235.02-.752.12-1.377.12-2.024a6.426 6.426 0 0 0-7.88-6.259c-3.61-5.731-3.04-17.992-12.37-31.631l7.07-8.598 25.87-8.697c.75-30.326 35.6-37.341 40.95-59.49 7.46 0 12.11-2.208 15.72-9.292.94-1.834.5-6.148-4.17-5.219-2.6 7.347-6.04 8.644-10.871 8.644-12.559 0-22.689-2.111-24.369 3.481-2.841 9.437-15.93 3.517-15.93 3.517l3.2-2.332c.27.032.53.049.81.049 2.42 0 4.39-1.277 4.39-2.852 0-1.574-1.97-2.851-4.39-2.851-2.421-.001-4.38 1.276-4.38 2.851 0 .097 0 .194.02.288l-3.01 2.182c-3.87 0-4.54-3.033-4.64-4.473 1.53.002 2.68-1.269 2.68-2.837 0-1.567-1.15-2.838-2.56-2.838.05-1.159.71-3.549 3.48-5.752l22.33-17.725c3.24-2.57 9.69-6.023 12.56-7.51-.35-4.86 1.49-11.273 1.49-15.806 0 0 6.569 2.814 9.26 9.196 1.98 4.724.73 7.657-.151 9.971 1.21 1.905 6.281 1.923 6.881-2.962.23-1.922.2-4.188-.53-6.814 8.69.945 20.92 3.925 39.74 2.025-3.81 4.415-8.71 7.607-13.87 9.912 9.37 2.216 20.89 6.831 26.66 16.425-4.52 2.296-9.46 3.798-14.36 4.754 8.99 7.83 12.51 19.552 20.21 24.289-9.98 2.768-18.2 1.987-24.68-.208 3.13 6.397 7.98 13.852 14.63 17.256-9.05 4.072-17.86 6.396-24.67 7.716 2.13 3.563 5.26 7.955 9.08 10.852a43.98 43.98 0 0 0-15.96 3.678c-.59 8.214-2.85 25.261 17.97 47.239 27.75 20.981 34.67 36.876 12.8 65.08 0 14.295 2.39 20.043 9.8 34.641-.64 1.426-3.67 8.289-6.7 16.686-3.33 9.201-5.82 19.306-5.82 28.189 0 0-4.7-.026-4.7 4.984V344c-8.63 2.691-17.4 2.795-22.52.312Zm-107.99-185.123c-4-3.959-4.04-12.457-4.01-13.974a6.423 6.423 0 0 0 .34-11.211c3.62-10.681 10.67-16.229 13.53-31.385h11.05l26.27 20.611c-4.681 5.281-8.56 11.461-10.36 19.325l-13.99-26.029c-8.98 0-14.48 7.427-9.83 18.512l-3.38 3.395 5.2 5.507c-3.89 7.712-9.1 13.083-14.82 15.249Zm41.19 120.602h37.22c0-15.338-11.391-25.404-11.391-43.348 0-11.738 4.611-19.101 16.851-22.636 3.07 2.778 5.82 6.315 8.08 11.148.11 15.713 2.74 26.5 6.49 34.303 0 0-8.46 6.439-8.46 30.121 0 0-33.58-1.539-37.61 2.842h-5.29v7.582c-8.27 2.722-15.96 2.814-21.47.275 0-6.736 7.23-12.865 7.23-12.865.75.027 1.37.123 2.02.123a6.426 6.426 0 0 0 6.429-6.424c0-.383-.04-.758-.099-1.121Zm-83.32 141.475c-8.69-6.313-11.94-17.27-3.58-21.499.56-1.474 0-3.197-1.32-4.058-9.25 1.492-13.05-9.285-9.73-19.504 3.31-10.213 12.73-16.691 19.33-10.049 1.58.08 3.05-.984 3.46-2.508-4.28-8.336 4.79-15.291 15.54-15.291 10.73.002 19.81 6.955 15.53 15.291.41 1.524 1.88 2.588 3.45 2.508 6.61-6.642 16.02-.162 19.34 10.057 3.32 10.213-.49 20.988-9.73 19.498a3.411 3.411 0 0 0-1.32 4.056c8.36 4.231 5.1 15.188-3.59 21.503-8.69 6.312-20.11 6.021-21.55-3.237a3.435 3.435 0 0 0-4.27 0c-1.44 9.258-12.87 9.547-21.56 3.233Zm44.38-32.604c0 11.428-9.27 20.692-20.69 20.692-11.43 0-20.69-9.264-20.69-20.692 0-11.426 9.26-20.689 20.69-20.689 11.42 0 20.69 9.263 20.69 20.689Z" style="fill:#ed1c24;"/><path d="M8.4 87.839h11.3v-55.7h.2c1.6 7.1 2.7 10.3 4.5 15.6l14.3 40.1h11.1l14.4-40.1c1.7-5.2 3.3-10 4.4-15.1h.2v55.2h12.1v-74H64.1l-19.2 58.7h-.2l-19.8-58.7H8.4v74ZM96.6 25.539h12.6v-10.7H96.6v10.7Zm.1 62.3h12.4v-53.1H96.7v53.1ZM123.4 87.839h12.4v-36.7c4.5-4.1 9-6.9 14.4-6.9s7.9 2.7 7.9 8.6v35h12.4v-38.1c0-10.5-6-16-15.3-16-9.6 0-16 4.6-19.4 8.2v-7.2h-12.4v53.1ZM184.1 25.539h12.6v-10.7h-12.6v10.7Zm.1 62.3h12.4v-53.1h-12.4v53.1ZM230.3 88.939c12.1 0 22.2-5.2 22.2-16.4 0-12.4-11.1-14.7-20.2-16.7-6.3-1.4-11.6-2.7-11.6-7 0-3 2.2-5.4 9-5.4 4.8 0 11.1 2.6 15 5.8l5.9-8c-5.5-4.6-11.7-7.5-21.8-7.5-11.7 0-19.7 6.3-19.7 15.6 0 12.3 10.9 14.7 20 16.8 6.4 1.5 11.8 2.8 11.8 7.1 0 4.4-4 6.1-10.6 6.1-6.8 0-12.7-2.9-16.7-6.3l-6.7 7.5c4.8 4.9 13.6 8.4 23.4 8.4ZM283.8 88.539c3.1 0 7.7-.4 9-.7v-9.7c-1.2.4-3.5.7-5.3.7-6.1 0-7.8-2.3-7.8-8v-26.3h13.7v-9.8h-13.7v-18.5h-12.3v18.5h-9.2v9.8h9.2v29.4c0 9.6 2.9 14.6 16.4 14.6ZM326.1 88.939c9.5 0 16.8-3.5 22.3-9.6l-6.5-6.4c-4 3.9-8 6.2-14.9 6.2-7.8 0-13.7-4.2-14.2-13.8h36.3v-2.9c0-21.6-11.4-28.7-23.3-28.7-11 0-25.3 7.4-25.3 27.6 0 19.5 12.3 27.6 25.6 27.6Zm-13.1-32.8c1.2-9 6.7-12.4 12.7-12.4 7.4 0 11.4 4.3 12.1 12.4H313ZM359.9 87.839h12.3v-33.6c3.5-5.7 8.5-9.4 16.4-9.4.7 0 2.7.1 3.3.2l.4-11.3h-.8c-10.1 0-15.8 4.4-19.1 9.7h-.2v-8.7h-12.3v53.1ZM401.5 25.539h12.6v-10.7h-12.6v10.7Zm.1 62.3H414v-53.1h-12.4v53.1ZM443 88.839c9.6 0 16-4.6 19.4-8.2v7.2h12.4v-53.1h-12.4v36.9c-4.5 4.1-9 6.9-14.4 6.9s-7.9-2.7-7.9-8.6v-35.2h-12.4v38.1c0 10.5 6 16 15.3 16ZM488.6 87.839h12.3v-36.7c4.6-4.1 8.7-6.9 13.6-6.9 5.8 0 7.5 2.7 7.5 8.6v35h12.3v-36.7c4.6-4.1 8.6-6.9 13.6-6.9 5.8 0 7.5 2.7 7.5 8.6v35h12.3v-38.1c0-9.5-4.7-16-15.5-16-8.1 0-14.4 4.1-18.6 8.7-2.1-5.2-5.6-8.7-14.5-8.7-8.1 0-14.1 3.8-18.2 8.3v-7.3h-12.3v53.1ZM610.7 87.839H623v-43.3h11.6v-9.8H623v-4.7c0-5.7 3.6-6.9 8-6.9 1.4 0 3.4.2 4.2.4v-9.5c-.9-.1-5-.5-7.3-.5-13.5 0-17.2 6.9-17.2 15.8v5.4h-9.2v9.8h9.2v43.3ZM658.2 88.839c9.6 0 16-4.6 19.4-8.2v7.2H690v-53.1h-12.4v36.9c-4.5 4.1-9 6.9-14.4 6.9s-7.9-2.7-7.9-8.6v-35.2h-12.4v38.1c0 10.5 6 16 15.3 16Zm12.5-59.4H682v-12.1h-11.3v12.1Zm-19.7 0h11.2v-12.1H651v12.1ZM703.8 87.839h12.3v-33.6c3.5-5.7 8.5-9.4 16.4-9.4.7 0 2.7.1 3.3.2l.4-11.3h-.8c-10.1 0-15.8 4.4-19.1 9.7h-.2v-8.7h-12.3v53.1ZM799.3 89.039c19.1 0 28.6-11.5 28.6-28.3v-46.9h-12.3v46c0 11.4-4.9 17.9-16.2 17.9-11.4 0-16.3-6.7-16.3-18v-45.9h-12.5v47c0 16.8 8.3 28.2 28.7 28.2ZM842.2 87.839h12.3v-36.7c4.6-4.1 8.7-6.9 13.6-6.9 5.8 0 7.5 2.7 7.5 8.6v35h12.3v-36.7c4.6-4.1 8.6-6.9 13.6-6.9 5.8 0 7.5 2.7 7.5 8.6v35h12.3v-38.1c0-9.5-4.7-16-15.5-16-8.1 0-14.4 4.1-18.6 8.7-2.1-5.2-5.6-8.7-14.5-8.7-8.1 0-14.1 3.8-18.2 8.3v-7.3h-12.3v53.1ZM944.7 87.839h11.4l9.6-36.9h.2l9.6 36.9H987l15.8-53.1h-11.2l-6 22.4c-1.7 5.8-2.6 9.6-4.2 16.5h-.2c-1.5-6.8-2.4-10.8-4.1-16.7l-5.9-22.2h-10l-5.6 21.8c-1.7 6.1-2.6 9.9-4.2 17.1h-.2c-1.4-6.8-2.4-10.9-4-16.9l-5.8-22h-12.5l15.8 53.1ZM1033.5 88.939c9.5 0 16.8-3.5 22.3-9.6l-6.5-6.4c-4 3.9-8 6.2-14.9 6.2-7.8 0-13.7-4.2-14.2-13.8h36.3v-2.9c0-21.6-11.4-28.7-23.3-28.7-11 0-25.3 7.4-25.3 27.6 0 19.5 12.3 27.6 25.6 27.6Zm-13.1-32.8c1.2-9 6.7-12.4 12.7-12.4 7.4 0 11.4 4.3 12.1 12.4h-24.8ZM1067.8 13.839h12.4v74h-12.4zM1115.1 88.539c3.1 0 7.7-.4 9-.7v-9.7c-1.2.4-3.5.7-5.3.7-6.1 0-7.8-2.3-7.8-8v-26.3h13.7v-9.8H1111v-18.5h-12.3v18.5h-9.2v9.8h9.2v29.4c0 9.6 2.9 14.6 16.4 14.6ZM1136.6 99.039h5.7l6.3-12.9v-11.3h-13.8v13h5.3l-3.5 11.2ZM8.4 207.838H20v-53.9h.2l36.3 53.9h11.4v-74H56.3v52.8h-.2l-35-52.8H8.4v74ZM94.8 208.638c7.9 0 14.2-2.1 19.6-7.6 0 3 .5 4.6 1.2 6.8H128c-1.1-2.7-1.5-6.6-1.5-13v-21.9c0-12.4-4.9-19.2-19.1-19.2-11 0-19.9 4.4-25.6 9.6l6 7.7c4.5-3.6 10.5-7.2 17.9-7.2 5.9 0 8.7 2.3 8.7 7.6v1.6c-24.8 2.8-34.6 10.5-34.6 22 0 8.8 6.4 13.6 15 13.6Zm4.5-9.5c-4.5 0-7.4-2.2-7.4-6.4 0-5.8 7.8-9.4 22.5-11.4v11.7c-3.9 3.7-8.8 6.1-15.1 6.1ZM160.3 208.538c3.1 0 7.7-.4 9-.7v-9.7c-1.2.4-3.5.7-5.3.7-6.1 0-7.8-2.3-7.8-8v-26.3h13.7v-9.8h-13.7v-18.5h-12.3v18.5h-9.2v9.8h9.2v29.4c0 9.6 2.9 14.6 16.4 14.6ZM194.7 208.838c9.6 0 16-4.6 19.4-8.2v7.2h12.4v-53.1h-12.4v36.9c-4.5 4.1-9 6.9-14.4 6.9s-7.9-2.7-7.9-8.6v-35.2h-12.4v38.1c0 10.5 6 16 15.3 16ZM240.3 207.838h12.3v-33.6c3.5-5.7 8.5-9.4 16.4-9.4.7 0 2.7.1 3.3.2l.4-11.3h-.8c-10.1 0-15.8 4.4-19.1 9.7h-.2v-8.7h-12.3v53.1ZM300.9 208.938c12.1 0 22.2-5.2 22.2-16.4 0-12.4-11.1-14.7-20.2-16.7-6.3-1.4-11.6-2.7-11.6-7 0-3 2.2-5.4 9-5.4 4.8 0 11.1 2.6 15 5.8l5.9-8c-5.5-4.6-11.7-7.5-21.8-7.5-11.7 0-19.7 6.3-19.7 15.6 0 12.3 10.9 14.7 20 16.8 6.4 1.5 11.8 2.8 11.8 7.1 0 4.4-4 6.1-10.6 6.1-6.8 0-12.7-2.9-16.7-6.3l-6.7 7.5c4.8 4.9 13.6 8.4 23.4 8.4ZM355.6 208.938c12.8 0 19.1-7.1 22.9-15.6l-10.2-3.7c-2.9 7.5-6.8 9.2-12.4 9.2-8.1 0-12.7-6.2-12.7-17.5 0-12.7 5.9-17.3 12.9-17.3 5.9 0 9.7 2.9 11.8 8.9l10.4-3.7c-3.2-8.2-8.8-15.5-22-15.5-11.8 0-25.5 7.3-25.5 27.6 0 19.4 12.5 27.6 24.8 27.6ZM388.3 207.838h12.4v-36.7c4.5-4.1 9-6.9 14.4-6.9s7.9 2.7 7.9 8.6v35h12.4v-38.1c0-10.5-6-16-15.3-16-9.6 0-16 4.6-19.4 8.2v-28.1h-12.4v74ZM463.3 208.838c9.6 0 16-4.6 19.4-8.2v7.2h12.4v-53.1h-12.4v36.9c-4.5 4.1-9 6.9-14.4 6.9s-7.9-2.7-7.9-8.6v-35.2H448v38.1c0 10.5 6 16 15.3 16ZM529.5 208.538c3.1 0 7.7-.4 9-.7v-9.7c-1.2.4-3.5.7-5.3.7-6.1 0-7.8-2.3-7.8-8v-26.3h13.7v-9.8h-13.7v-18.5h-12.3v18.5h-9.2v9.8h9.2v29.4c0 9.6 2.9 14.6 16.4 14.6ZM545.7 207.838h45.4v-9.5H561l28.4-36.2v-7.4h-41.6v9.8H574l-28.3 36.2v7.1ZM641 208.838c9.6 0 16-4.6 19.4-8.2v7.2h12.4v-53.1h-12.4v36.9c-4.5 4.1-9 6.9-14.4 6.9s-7.9-2.7-7.9-8.6v-35.2h-12.4v38.1c0 10.5 6 16 15.3 16ZM686.6 207.838H699v-36.7c4.5-4.1 9-6.9 14.4-6.9s7.9 2.7 7.9 8.6v35h12.4v-38.1c0-10.5-6-16-15.3-16-9.6 0-16 4.6-19.4 8.2v-7.2h-12.4v53.1ZM765 208.638c7.9 0 13-3.5 16.9-8 0 2.7.5 5.7 1.2 7.2h12.7c-1.2-2.7-1.6-6.6-1.6-13v-61h-12.3v26.6c-3.9-4.4-9.5-6.7-15.2-6.7-13.6 0-22.7 9.3-22.7 27.7s8.9 27.2 21 27.2Zm4-10.1c-7.9 0-12.7-5.6-12.7-16.8 0-11.8 3.8-17.8 13.1-17.8 4.4 0 9.2 2.3 12.5 6.6v21.3c-2.9 3.5-7.8 6.7-12.9 6.7ZM854.4 208.138h11.8l25.7-74.3h-11.8l-19.4 57.7h-.2l-19.1-57.7h-12.7l25.7 74.3ZM923.9 208.938c9.5 0 16.8-3.5 22.3-9.6l-6.5-6.4c-4 3.9-8 6.2-14.9 6.2-7.8 0-13.7-4.2-14.2-13.8h36.3v-2.9c0-21.6-11.4-28.7-23.3-28.7-11 0-25.3 7.4-25.3 27.6 0 19.5 12.3 27.6 25.6 27.6Zm-13.1-32.8c1.2-9 6.7-12.4 12.7-12.4 7.4 0 11.4 4.3 12.1 12.4h-24.8ZM957.7 207.838H970v-33.6c3.5-5.7 8.5-9.4 16.4-9.4.7 0 2.7.1 3.3.2l.4-11.3h-.8c-10.1 0-15.8 4.4-19.1 9.7h-.2v-8.7h-12.3v53.1ZM998.9 207.838h12.3v-15.3l8.5-9.3 13.7 24.6h12.9l-18.8-33.7 17.3-19.4h-13.5l-20.1 23.2v-44.1h-12.3v74ZM1077.8 208.938c9.5 0 16.8-3.5 22.3-9.6l-6.5-6.4c-4 3.9-8 6.2-14.9 6.2-7.8 0-13.7-4.2-14.2-13.8h36.3v-2.9c0-21.6-11.4-28.7-23.3-28.7-11 0-25.3 7.4-25.3 27.6 0 19.5 12.3 27.6 25.6 27.6Zm-13.1-32.8c1.2-9 6.7-12.4 12.7-12.4 7.4 0 11.4 4.3 12.1 12.4h-24.8ZM1111.6 207.838h12.4v-36.7c4.5-4.1 9-6.9 14.4-6.9s7.9 2.7 7.9 8.6v35h12.4v-38.1c0-10.5-6-16-15.3-16-9.6 0-16 4.6-19.4 8.2v-28.1h-12.4v74ZM1171.9 207.838h12.3v-33.6c3.5-5.7 8.5-9.4 16.4-9.4.7 0 2.7.1 3.3.2l.4-11.3h-.8c-10.1 0-15.8 4.4-19.1 9.7h-.2v-8.7h-12.3v53.1ZM25 328.638c7.9 0 13-3.5 16.9-8 0 2.7.5 5.7 1.2 7.2h12.7c-1.2-2.7-1.6-6.6-1.6-13v-61H41.9v26.6c-3.9-4.4-9.5-6.7-15.2-6.7-13.6 0-22.7 9.3-22.7 27.7s8.9 27.2 21 27.2Zm4-10.1c-7.9 0-12.7-5.6-12.7-16.8 0-11.8 3.8-17.8 13.1-17.8 4.4 0 9.2 2.3 12.5 6.6v21.3c-2.9 3.5-7.8 6.7-12.9 6.7ZM90.6 328.938c9.5 0 16.8-3.5 22.3-9.6l-6.5-6.4c-4 3.9-8 6.2-14.9 6.2-7.8 0-13.7-4.2-14.2-13.8h36.3v-2.9c0-21.6-11.4-28.7-23.3-28.7-11 0-25.3 7.4-25.3 27.6 0 19.5 12.3 27.6 25.6 27.6Zm-13.1-32.8c1.2-9 6.7-12.4 12.7-12.4 7.4 0 11.4 4.3 12.1 12.4H77.5ZM143.8 328.938c12.1 0 22.2-5.2 22.2-16.4 0-12.4-11.1-14.7-20.2-16.7-6.3-1.4-11.6-2.7-11.6-7 0-3 2.2-5.4 9-5.4 4.8 0 11.1 2.6 15 5.8l5.9-8c-5.5-4.6-11.7-7.5-21.8-7.5-11.7 0-19.7 6.3-19.7 15.6 0 12.3 10.9 14.7 20 16.8 6.4 1.5 11.8 2.8 11.8 7.1 0 4.4-4 6.1-10.6 6.1-6.8 0-12.7-2.9-16.7-6.3l-6.7 7.5c4.8 4.9 13.6 8.4 23.4 8.4ZM203.3 327.838h46.6v-11.4h-34.1v-62.6h-12.5v74ZM271.2 328.638c7.9 0 14.2-2.1 19.6-7.6 0 3 .5 4.6 1.2 6.8h12.4c-1.1-2.7-1.5-6.6-1.5-13v-21.9c0-12.4-4.9-19.2-19.1-19.2-11 0-19.9 4.4-25.6 9.6l6 7.7c4.5-3.6 10.5-7.2 17.9-7.2 5.9 0 8.7 2.3 8.7 7.6v1.6c-24.8 2.8-34.6 10.5-34.6 22 0 8.8 6.4 13.6 15 13.6Zm4.5-9.5c-4.5 0-7.4-2.2-7.4-6.4 0-5.8 7.8-9.4 22.5-11.4v11.7c-3.9 3.7-8.8 6.1-15.1 6.1ZM316.1 327.838h12.4v-36.7c4.5-4.1 9-6.9 14.4-6.9s7.9 2.7 7.9 8.6v35h12.4v-38.1c0-10.5-6-16-15.3-16-9.6 0-16 4.6-19.4 8.2v-7.2h-12.4v53.1ZM394.5 328.638c7.9 0 13-3.5 16.9-8 0 2.7.5 5.7 1.2 7.2h12.7c-1.2-2.7-1.6-6.6-1.6-13v-61h-12.3v26.6c-3.9-4.4-9.5-6.7-15.2-6.7-13.6 0-22.7 9.3-22.7 27.7s8.9 27.2 21 27.2Zm4-10.1c-7.9 0-12.7-5.6-12.7-16.8 0-11.8 3.8-17.8 13.1-17.8 4.4 0 9.2 2.3 12.5 6.6v21.3c-2.9 3.5-7.8 6.7-12.9 6.7ZM460.1 328.938c9.5 0 16.8-3.5 22.3-9.6l-6.5-6.4c-4 3.9-8 6.2-14.9 6.2-7.8 0-13.7-4.2-14.2-13.8h36.3v-2.9c0-21.6-11.4-28.7-23.3-28.7-11 0-25.3 7.4-25.3 27.6 0 19.5 12.3 27.6 25.6 27.6Zm-13.1-32.8c1.2-9 6.7-12.4 12.7-12.4 7.4 0 11.4 4.3 12.1 12.4H447ZM513.3 328.938c12.1 0 22.2-5.2 22.2-16.4 0-12.4-11.1-14.7-20.2-16.7-6.3-1.4-11.6-2.7-11.6-7 0-3 2.2-5.4 9-5.4 4.8 0 11.1 2.6 15 5.8l5.9-8c-5.5-4.6-11.7-7.5-21.8-7.5-11.7 0-19.7 6.3-19.7 15.6 0 12.3 10.9 14.7 20 16.8 6.4 1.5 11.8 2.8 11.8 7.1 0 4.4-4 6.1-10.6 6.1-6.8 0-12.7-2.9-16.7-6.3l-6.7 7.5c4.8 4.9 13.6 8.4 23.4 8.4ZM572.8 327.838h11.6v-53.9h.2l36.3 53.9h11.4v-74h-11.6v52.8h-.2l-35-52.8h-12.7v74ZM670.5 328.938c12.9 0 25.9-8.2 25.9-27.6 0-19.6-13-27.6-25.9-27.6-13 0-25.9 8-25.9 27.6 0 19.4 13 27.6 25.9 27.6Zm0-10.3c-9.4 0-13.5-7.2-13.5-17.3 0-10.7 4.6-17.1 13.5-17.1 9.3 0 13.5 7.2 13.5 17.1 0 10.9-4.6 17.3-13.5 17.3ZM707.2 327.838h12.3v-33.6c3.5-5.7 8.5-9.4 16.4-9.4.7 0 2.7.1 3.3.2l.4-11.3h-.8c-10.1 0-15.8 4.4-19.1 9.7h-.2v-8.7h-12.3v53.1ZM766.5 328.638c7.9 0 13-3.5 16.9-8 0 2.7.5 5.7 1.2 7.2h12.7c-1.2-2.7-1.6-6.6-1.6-13v-61h-12.3v26.6c-3.9-4.4-9.5-6.7-15.2-6.7-13.6 0-22.7 9.3-22.7 27.7s8.9 27.2 21 27.2Zm4-10.1c-7.9 0-12.7-5.6-12.7-16.8 0-11.8 3.8-17.8 13.1-17.8 4.4 0 9.2 2.3 12.5 6.6v21.3c-2.9 3.5-7.8 6.7-12.9 6.7ZM809.5 327.838h12.3v-33.6c3.5-5.7 8.5-9.4 16.4-9.4.7 0 2.7.1 3.3.2l.4-11.3h-.8c-10.1 0-15.8 4.4-19.1 9.7h-.2v-8.7h-12.3v53.1ZM850.7 327.838h12.4v-36.7c4.5-4.1 9-6.9 14.4-6.9s7.9 2.7 7.9 8.6v35h12.4v-38.1c0-10.5-6-16-15.3-16-9.6 0-16 4.6-19.4 8.2v-28.1h-12.4v74ZM933.6 328.938c9.5 0 16.8-3.5 22.3-9.6l-6.5-6.4c-4 3.9-8 6.2-14.9 6.2-7.8 0-13.7-4.2-14.2-13.8h36.3v-2.9c0-21.6-11.4-28.7-23.3-28.7-11 0-25.3 7.4-25.3 27.6 0 19.5 12.3 27.6 25.6 27.6Zm-13.1-32.8c1.2-9 6.7-12.4 12.7-12.4 7.4 0 11.4 4.3 12.1 12.4h-24.8ZM967.8 265.538h12.6v-10.7h-12.6v10.7Zm.1 62.3h12.4v-53.1h-12.4v53.1ZM994.6 327.838h12.4v-36.7c4.5-4.1 9-6.9 14.4-6.9s7.9 2.7 7.9 8.6v35h12.4v-38.1c0-10.5-6-16-15.3-16-9.6 0-16 4.6-19.4 8.2v-7.2h-12.4v53.1ZM1053.5 292.038h24.7v8.8h-24.7zM1106.28 327.838h11l14-56.7h.2l13.3 56.7h10.9l19.5-74h-11.7l-9.2 38.9c-1.4 6.3-2.5 10.2-3.6 16.6h-.2c-1.1-6.2-2.3-10.6-3.9-16.9l-9.2-38.6h-12l-8.9 38.4c-1.5 5.9-2.8 11.4-3.8 17.1h-.2c-1-5.8-2.4-11.3-3.9-17.2l-9.4-38.3h-12.6l19.7 74ZM1207.58 328.938c9.5 0 16.8-3.5 22.3-9.6l-6.5-6.4c-4 3.9-8 6.2-14.9 6.2-7.8 0-13.7-4.2-14.2-13.8h36.3v-2.9c0-21.6-11.4-28.7-23.3-28.7-11 0-25.3 7.4-25.3 27.6 0 19.5 12.3 27.6 25.6 27.6Zm-13.1-32.8c1.2-9 6.7-12.4 12.7-12.4 7.4 0 11.4 4.3 12.1 12.4h-24.8ZM1260.78 328.938c12.1 0 22.2-5.2 22.2-16.4 0-12.4-11.1-14.7-20.2-16.7-6.3-1.4-11.6-2.7-11.6-7 0-3 2.2-5.4 9-5.4 4.8 0 11.1 2.6 15 5.8l5.9-8c-5.5-4.6-11.7-7.5-21.8-7.5-11.7 0-19.7 6.3-19.7 15.6 0 12.3 10.9 14.7 20 16.8 6.4 1.5 11.8 2.8 11.8 7.1 0 4.4-4 6.1-10.6 6.1-6.8 0-12.7-2.9-16.7-6.3l-6.7 7.5c4.8 4.9 13.6 8.4 23.4 8.4ZM1314.28 328.538c3.1 0 7.7-.4 9-.7v-9.7c-1.2.4-3.5.7-5.3.7-6.1 0-7.8-2.3-7.8-8v-26.3h13.7v-9.8h-13.7v-18.5h-12.3v18.5h-9.2v9.8h9.2v29.4c0 9.6 2.9 14.6 16.4 14.6ZM1338.58 327.838h12.3v-43.3h11.6v-9.8h-11.6v-4.7c0-5.7 3.6-6.9 8-6.9 1.4 0 3.4.2 4.2.4v-9.5c-.9-.1-5-.5-7.3-.5-13.5 0-17.2 6.9-17.2 15.8v5.4h-9.2v9.8h9.2v43.3ZM1382.98 328.638c7.9 0 14.2-2.1 19.6-7.6 0 3 .5 4.6 1.2 6.8h12.4c-1.1-2.7-1.5-6.6-1.5-13v-21.9c0-12.4-4.9-19.2-19.1-19.2-11 0-19.9 4.4-25.6 9.6l6 7.7c4.5-3.6 10.5-7.2 17.9-7.2 5.9 0 8.7 2.3 8.7 7.6v1.6c-24.8 2.8-34.6 10.5-34.6 22 0 8.8 6.4 13.6 15 13.6Zm4.5-9.5c-4.5 0-7.4-2.2-7.4-6.4 0-5.8 7.8-9.4 22.5-11.4v11.7c-3.9 3.7-8.8 6.1-15.1 6.1ZM1428.38 253.838h12.4v74h-12.4zM1477.68 328.938c9.5 0 16.8-3.5 22.3-9.6l-6.5-6.4c-4 3.9-8 6.2-14.9 6.2-7.8 0-13.7-4.2-14.2-13.8h36.3v-2.9c0-21.6-11.4-28.7-23.3-28.7-11 0-25.3 7.4-25.3 27.6 0 19.5 12.3 27.6 25.6 27.6Zm-13.1-32.8c1.2-9 6.7-12.4 12.7-12.4 7.4 0 11.4 4.3 12.1 12.4h-24.8ZM1511.48 327.838h12.4v-36.7c4.5-4.1 9-6.9 14.4-6.9s7.9 2.7 7.9 8.6v35h12.4v-38.1c0-10.5-6-16-15.3-16-9.6 0-16 4.6-19.4 8.2v-7.2h-12.4v53.1Z" style="fill:#fff;fill-rule:nonzero;stroke:#fff;stroke-width:1px;"/></svg>