<svg xmlns="http://www.w3.org/2000/svg" viewBox="0 0 64 64">
  <rect width="64" height="64" fill="#101626"/>
  <path d="M4 0V64M0 4H64M8 0V64M0 8H64M12 0V64M0 12H64M20 0V64M0 20H64M24 0V64M0 24H64M28 0V64M0 28H64M36 0V64M0 36H64M40 0V64M0 40H64M44 0V64M0 44H64M52 0V64M0 52H64M56 0V64M0 56H64M60 0V64M0 60H64" stroke="rgba(255,196,50,.10)" stroke-width=".3" fill="none"/><path d="M16 0V64M0 16H64M32 0V64M0 32H64M48 0V64M0 48H64" stroke="rgba(255,196,50,.20)" stroke-width=".7" fill="none"/><g transform="translate(32 32) scale(0.85) translate(-32 -32)"><g fill="rgba(255,196,50,.45)"><path d="M19 14h2v36h-2z"/><path d="M31 14h2v36h-2z"/><path d="M43 14h2v36h-2z"/></g><g fill="#ffc432"><rect x="15" y="32.5" width="10" height="7" rx="1.5"/><rect x="27" y="16.5" width="10" height="7" rx="1.5"/><rect x="39" y="26.5" width="10" height="7" rx="1.5"/></g></g>
</svg>
